<svg width="24" height="24" viewBox="0 0 24 24" fill="none" xmlns="http://www.w3.org/2000/svg">
<path d="M12.1506 9.63818C10.6094 9.63818 9.35547 10.8921 9.35547 12.4334C9.35547 13.9746 10.6094 15.2285 12.1506 15.2285C13.6919 15.2285 14.9458 13.9746 14.9458 12.4334C14.9458 10.8921 13.6919 9.63818 12.1506 9.63818Z" fill="#787885"/>
<path d="M20.8306 6.14958H15.608L15.2402 4.63341C15.2402 4.30835 14.9768 4 14.6517 4H9.94413C9.61931 4 9.35562 4.30858 9.35562 4.63341L8.98781 6.14958H3.47103C2.65873 6.14958 2 6.61962 2 7.43216V17.4358C2 18.2481 2.65873 19.0471 3.47103 19.0471H20.8306C21.6431 19.0471 22.3016 18.2481 22.3016 17.4358V7.43216C22.3016 6.61962 21.6431 6.14958 20.8306 6.14958ZM12.1508 16.9944C9.6322 16.9944 7.59034 14.9526 7.59034 12.4338C7.59034 9.91517 9.6322 7.8733 12.1508 7.8733C14.6696 7.8733 16.7112 9.91517 16.7112 12.4338C16.7112 14.9526 14.6696 16.9944 12.1508 16.9944Z" fill="#787885"/>
</svg>
