<svg width="38" height="36" viewBox="0 0 38 36" fill="none" xmlns="http://www.w3.org/2000/svg">
<path d="M16.0113 30.0494L12.9287 28.5093L12.8921 9.97197L16.0113 11.6642V30.0494Z" fill="url(#paint0_linear_1_1353)"/>
<path d="M25.0758 21.3988L21.993 19.8586L18.0422 14.9959L18.0271 12.8946L25.0758 21.3988Z" fill="url(#paint1_linear_1_1353)"/>
<path d="M18.5394 10.3385L15.9747 11.7118L12.8921 9.972L15.3766 8.56468L18.5394 10.3385Z" fill="url(#paint2_linear_1_1353)"/>
<path d="M36.0261 18.0394C36.0261 25.6816 31.7471 32.9648 25.3977 34.9999C23.9528 35.463 21.2333 35.9667 19.0027 35.9969C17.5805 36.016 15.5567 35.9428 15.1489 35.8754C5.18196 34.2276 0 26.5978 0 18.0027C0 8.16897 6.67146 1.67883 13.182 0.199287C14.0852 -0.00601467 17.8528 -0.0647958 18.0372 0.0800827C18.6939 0.59574 20.7153 1.0161 21.5062 2.50608C22.5485 3.03204 24.1198 4.57791 24.865 5.82483C25.2805 6.51695 25.0336 7.05156 25.2101 7.72445C25.4103 8.49609 25.2666 9.92441 25.2666 9.92441V18.4331L22.0078 14.5343L22.0049 8.52918C22.0049 8.52918 21.9318 6.27745 20.9117 4.90282C20.1732 3.90763 19.3703 3.23213 17.8779 3.01282C12.093 2.16305 3.72683 8.96231 3.78632 18.1103C3.84056 26.4581 10.6886 34.3768 19.0027 33.2504C27.8823 32.0474 32.6177 26.9728 33.0779 19.4658C33.246 16.7235 32.8283 12.9199 31.6397 10.9479C32.6682 10.5032 33.0805 9.93293 33.9511 9.43993C35.2556 11.4254 36.0261 13.115 36.0261 18.0394Z" fill="url(#paint3_linear_1_1353)"/>
<path d="M36.976 21.0616C35.8607 29.0265 29.4359 35.9986 19.5236 35.999C11.043 35.9994 2.17224 28.6377 2.17224 18.7748C2.17224 7.01289 12.7055 0.0801392 17.6958 0.0801392C20.4909 0.0801392 22.8236 0.780499 24.8116 2.88749C25.4106 3.52234 26.4068 5.00093 26.5901 6.49379C26.6871 7.28397 26.5761 19.9545 26.5761 19.9545L25.0248 21.4293L18.0904 13.0461L18.1981 27.8663L15.9753 30.0973V11.7122L16.5881 11.3838L18.0346 10.6066L18.1092 10.5669L18.5398 10.3389L21.9711 14.4448L25.2301 18.3436C25.2301 18.3436 25.2592 8.47664 25.2562 8.43407C24.9801 4.49736 22.7485 3.37596 20.8392 2.80372C20.1106 2.58537 18.1348 2.59073 18.0131 2.59773C11.6141 2.96398 4.6564 9.89398 4.6564 17.8836C4.6564 26.2316 10.6119 33.2505 19.0028 33.2505C27.3937 33.2505 33.2879 28.5955 34.5078 19.9874C34.7839 18.0394 34.7826 15.6015 33.6979 12.1095C33.9734 11.962 35.6692 11.0538 36.2625 10.7362C36.8839 12.6754 37.658 16.1838 36.976 21.0616Z" fill="url(#paint4_radial_1_1353)"/>
<path d="M30.8062 9.46852C32.454 9.46852 33.7899 8.13952 33.7899 6.5001C33.7899 4.86068 32.454 3.53165 30.8062 3.53165C29.1583 3.53165 27.8225 4.86068 27.8225 6.5001C27.8225 8.13952 29.1583 9.46852 30.8062 9.46852Z" fill="url(#paint5_radial_1_1353)"/>
<path d="M36.2623 10.7363L33.6977 12.1096L31.6396 10.9481L33.951 9.43997L36.2623 10.7363Z" fill="url(#paint6_linear_1_1353)"/>
<defs>
<linearGradient id="paint0_linear_1_1353" x1="14.4516" y1="30.0494" x2="14.4516" y2="9.97198" gradientUnits="userSpaceOnUse">
<stop offset="0.0645" stop-color="#6D6E71"/>
<stop offset="0.195" stop-color="#898B8E"/>
<stop offset="0.3767" stop-color="#ADAFB2"/>
<stop offset="0.4677" stop-color="#BCBEC0"/>
<stop offset="0.8226" stop-color="#58595B"/>
</linearGradient>
<linearGradient id="paint1_linear_1_1353" x1="18.0271" y1="17.1466" x2="25.0759" y2="17.1466" gradientUnits="userSpaceOnUse">
<stop stop-color="#D1D3D4"/>
<stop offset="0.0497" stop-color="#C7C8CA"/>
<stop offset="0.358" stop-color="#8B8D8F"/>
<stop offset="0.5784" stop-color="#67686B"/>
<stop offset="0.6882" stop-color="#58595B"/>
<stop offset="0.7206" stop-color="#545557"/>
<stop offset="0.877" stop-color="#464648"/>
<stop offset="1" stop-color="#414042"/>
</linearGradient>
<linearGradient id="paint2_linear_1_1353" x1="12.892" y1="10.1382" x2="18.5393" y2="10.1382" gradientUnits="userSpaceOnUse">
<stop stop-color="#6D6E71"/>
<stop offset="0.3235" stop-color="#898B8E"/>
<stop offset="0.7742" stop-color="#ADAFB2"/>
<stop offset="1" stop-color="#BCBEC0"/>
</linearGradient>
<linearGradient id="paint3_linear_1_1353" x1="4.62004" y1="5.36738" x2="30.7496" y2="31.6311" gradientUnits="userSpaceOnUse">
<stop stop-color="#414042"/>
<stop offset="0.2419" stop-color="#D1D3D4"/>
<stop offset="0.2637" stop-color="#C7C8CA"/>
<stop offset="0.3986" stop-color="#8B8D8F"/>
<stop offset="0.495" stop-color="#67686B"/>
<stop offset="0.543" stop-color="#58595B"/>
<stop offset="0.6541" stop-color="#7D7F81"/>
<stop offset="0.7651" stop-color="#9B9DA0"/>
<stop offset="0.8226" stop-color="#A7A9AC"/>
<stop offset="0.8627" stop-color="#86878A"/>
<stop offset="0.9027" stop-color="#6A6C6E"/>
<stop offset="0.9402" stop-color="#545557"/>
<stop offset="0.9737" stop-color="#464648"/>
<stop offset="1" stop-color="#414042"/>
</linearGradient>
<radialGradient id="paint4_radial_1_1353" cx="0" cy="0" r="1" gradientUnits="userSpaceOnUse" gradientTransform="translate(19.7069 18.0398) scale(17.7951 17.7041)">
<stop stop-color="white"/>
<stop offset="0.0507" stop-color="#EEEEEF"/>
<stop offset="0.2365" stop-color="#BFC1C3"/>
<stop offset="0.417" stop-color="#999B9E"/>
<stop offset="0.5878" stop-color="#7E7F82"/>
<stop offset="0.7465" stop-color="#6A6B6E"/>
<stop offset="0.8886" stop-color="#5D5E60"/>
<stop offset="1" stop-color="#58595B"/>
</radialGradient>
<radialGradient id="paint5_radial_1_1353" cx="0" cy="0" r="1" gradientUnits="userSpaceOnUse" gradientTransform="translate(30.8062 6.50009) scale(2.9837 2.96846)">
<stop stop-color="white"/>
<stop offset="0.0507" stop-color="#EEEEEF"/>
<stop offset="0.2365" stop-color="#BFC1C3"/>
<stop offset="0.417" stop-color="#999B9E"/>
<stop offset="0.5878" stop-color="#7E7F82"/>
<stop offset="0.7465" stop-color="#6A6B6E"/>
<stop offset="0.8886" stop-color="#5D5E60"/>
<stop offset="1" stop-color="#58595B"/>
</radialGradient>
<linearGradient id="paint6_linear_1_1353" x1="31.6396" y1="10.7748" x2="36.2623" y2="10.7748" gradientUnits="userSpaceOnUse">
<stop stop-color="#414042"/>
<stop offset="0.0722" stop-color="#4D4D4F"/>
<stop offset="0.5202" stop-color="#898B8D"/>
<stop offset="0.8405" stop-color="#ADAFB2"/>
<stop offset="1" stop-color="#BCBEC0"/>
</linearGradient>
</defs>
</svg>
