<svg width="207" height="39" viewBox="0 0 207 39" fill="none" xmlns="http://www.w3.org/2000/svg">
<path d="M38.0382 19.0185C38.0382 29.5058 29.5065 38.0382 19.0197 38.0382C8.5324 38.0382 0 29.5061 0 19.0185C0 8.53239 8.53209 0 19.0197 0C19.8295 0 20.6272 0.0506097 21.4101 0.150286C21.9727 0.258912 22.7293 0.414144 23.1009 0.574305C25.0599 1.41708 26.0539 3.04863 26.3992 3.79852C27.0377 5.05729 27.0504 5.81088 27.0683 6.42899C27.0714 6.52991 27.0701 6.88294 27.0701 6.96595L27.0417 22.3591C27.0401 22.8235 26.7528 23.2389 26.318 23.4024C25.8835 23.5644 25.3938 23.4425 25.0873 23.096L16.9528 13.8659L16.9709 32.4853C16.9709 33.1013 16.4723 33.6031 15.856 33.6031H15.8548C15.2385 33.6031 14.7386 33.1044 14.7386 32.4884L14.7179 10.9086C14.7179 10.4441 15.0052 10.0288 15.4382 9.86399C15.8742 9.70012 16.364 9.82201 16.6704 10.1704L24.8142 19.4092L24.838 6.96164C24.838 6.87801 24.8389 6.60304 24.8395 6.54194C24.8417 6.28179 24.7306 5.34921 24.1952 4.5052C23.5135 3.4319 22.726 2.79744 21.4478 2.40737C20.6173 2.17376 19.8449 2.23641 19.0204 2.23178C10.1877 2.17839 2.23333 9.76246 2.23333 19.0182C2.23333 28.2752 9.76369 35.8055 19.0204 35.8055C28.2758 35.8055 35.8065 28.2752 35.8065 19.0182C35.8065 17.0623 35.4688 15.1845 34.8495 13.4385C34.8569 13.4341 34.7529 13.1098 34.7529 12.9324C34.7529 12.3149 35.2525 11.8149 35.8704 11.8149C36.2512 11.8149 36.5875 11.9933 36.7872 12.2849C36.8094 12.3149 36.9269 12.6096 36.9655 12.721C37.6602 14.6932 38.0382 16.813 38.0382 19.0185Z" fill="#041427"/>
<path d="M32.1854 9.88404C33.5143 9.88404 34.5915 8.80677 34.5915 7.4779C34.5915 6.14904 33.5143 5.07178 32.1854 5.07178C30.8565 5.07178 29.7793 6.14904 29.7793 7.4779C29.7793 8.80677 30.8565 9.88404 32.1854 9.88404Z" fill="#041427"/>
<path d="M47.2376 27.7566C43.5585 27.7566 40.5654 24.1139 40.5654 19.6365C40.5654 15.159 43.5585 11.5164 47.2376 11.5164C50.9164 11.5164 53.9094 15.159 53.9094 19.6365C53.9094 24.1142 50.9164 27.7566 47.2376 27.7566ZM47.2376 13.3682C44.5797 13.3682 42.417 16.1802 42.417 19.6368C42.417 23.0934 44.5797 25.9053 47.2376 25.9053C49.8956 25.9053 52.0579 23.0934 52.0579 19.6368C52.0579 16.1802 49.8959 13.3682 47.2376 13.3682Z" fill="#041427"/>
<path d="M62.2464 27.757C62.2371 27.757 62.2273 27.757 62.2177 27.7567C61.8628 27.7456 61.5449 27.532 61.4005 27.2077L54.9199 12.6481C54.7122 12.1809 54.9224 11.6337 55.3893 11.4257C55.8578 11.2187 56.4037 11.4285 56.6117 11.8951L62.3124 24.7022L68.8318 12.1988C69.0682 11.7454 69.6271 11.5686 70.0807 11.8059C70.5344 12.0423 70.7099 12.6015 70.4735 13.0548L63.0672 27.2589C62.9077 27.5656 62.5905 27.757 62.2464 27.757Z" fill="#041427"/>
<path d="M94.5292 10.4424C90.8508 10.4424 87.8574 14.0838 87.8574 18.5616C87.8574 23.0393 90.8508 26.681 94.5292 26.681C96.9888 26.681 99.1428 25.0544 100.297 22.6353C100.353 22.5212 100.405 22.4039 100.454 22.2835C100.466 22.2277 100.473 22.1694 100.473 22.1104C100.473 21.8512 100.359 21.6198 100.173 21.4562C100.007 21.3053 99.7813 21.2124 99.5347 21.2124C99.3187 21.2124 99.1212 21.2834 98.9638 21.4006C98.9203 21.4654 98.9299 21.5025 98.8867 21.5426C98.0994 23.6133 96.4209 24.8292 94.5292 24.8292C92.1284 24.8292 90.1348 22.5394 89.7707 19.5518H100.275C100.822 19.5518 101.266 19.1105 101.266 18.5612V18.2002C101.105 13.8956 98.1028 10.4424 94.5292 10.4424ZM89.7707 17.571C90.1348 14.5837 92.1284 12.294 94.5292 12.294C96.927 12.294 98.9234 14.5837 99.2879 17.571H89.7707Z" fill="#041427"/>
<path d="M82.3806 20.2189C82.393 19.7372 82.3776 19.2376 82.4362 18.7654C82.4825 18.7809 82.7636 18.8238 83.0691 18.8148C83.4391 18.8056 83.64 18.6327 84.2696 18.5618C84.2511 19.1604 84.2912 19.6851 84.2788 20.2313C84.2511 21.4993 84.7819 22.7371 85.6583 23.6536C86.2631 24.2893 87.0161 24.7306 87.8401 24.9528C88.3215 25.0145 88.6918 25.428 88.6918 25.928C88.6918 26.252 88.5375 26.5387 88.2937 26.718C88.1301 26.8414 87.9264 26.9158 87.7042 26.9158C87.6363 26.9158 87.5688 26.9093 87.5068 26.8942C87.4697 26.888 87.4358 26.8787 87.4018 26.8695C86.2041 26.5609 85.112 25.9283 84.2387 25.0117C83.0009 23.7153 82.3405 22.0116 82.3806 20.2189Z" fill="#041427"/>
<path d="M77.5579 27.6709C73.8788 27.6709 70.8857 24.0282 70.8857 19.5508C70.8857 15.0734 73.8788 11.4307 77.5579 11.4307C78.7256 11.4307 83.2024 11.3461 83.2478 11.3455L83.8205 11.3347L84.0856 11.8424C84.297 12.2469 84.3196 12.9126 84.2585 16.9317C84.244 17.8717 84.2298 18.8006 84.2298 19.5508C84.2298 24.0282 81.2366 27.6709 77.5579 27.6709ZM82.4278 13.2125C81.0552 13.2372 78.4361 13.2826 77.5579 13.2826C74.8999 13.2826 72.7373 16.0945 72.7373 19.5511C72.7373 23.0077 74.8999 25.8196 77.5579 25.8196C80.2158 25.8196 82.3782 23.0077 82.3782 19.5511C82.3782 18.7926 82.3924 17.8538 82.4069 16.904C82.4257 15.6754 82.4494 14.1133 82.4278 13.2125Z" fill="#041427"/>
<path d="M129.223 26.5625L126.787 19.9435C126.779 19.9123 126.766 19.8848 126.757 19.857L121.236 4.84382C121.1 4.47042 120.739 4.21429 120.344 4.23589C119.949 4.24515 119.603 4.50746 119.483 4.88394L112.657 26.6523C112.502 27.1399 112.774 27.6618 113.261 27.813C113.354 27.8438 113.447 27.8562 113.539 27.8562C113.934 27.8562 114.298 27.6031 114.422 27.2081L116.344 21.0763C116.455 21.1195 116.575 21.1442 116.702 21.1442H125.253L127.481 27.202C127.66 27.6837 128.191 27.9302 128.672 27.7513C129.152 27.5751 129.398 27.0443 129.223 26.5625ZM116.907 19.2923L120.437 8.03471L124.575 19.2923H116.907Z" fill="#041427"/>
<path d="M134.651 27.8059C134.641 27.8059 134.631 27.8059 134.622 27.8056C134.267 27.7945 133.949 27.5809 133.805 27.2566L127.324 12.697C127.117 12.2298 127.327 11.6827 127.794 11.4747C128.262 11.2679 128.808 11.4774 129.016 11.944L134.717 24.7511L141.236 12.2477C141.472 11.7944 142.032 11.6179 142.485 11.8549C142.939 12.0912 143.114 12.6504 142.878 13.1037L135.471 27.3078C135.312 27.6146 134.995 27.8059 134.651 27.8059Z" fill="#041427"/>
<path d="M149.807 11.4321C146.128 11.4321 143.135 15.0736 143.135 19.5513C143.135 24.029 146.128 27.6708 149.807 27.6708C152.266 27.6708 154.42 26.0442 155.574 23.6251C155.63 23.5109 155.682 23.3936 155.732 23.2733C155.744 23.2174 155.75 23.1591 155.75 23.1002C155.75 22.8409 155.636 22.6095 155.451 22.4459C155.284 22.295 155.059 22.2021 154.812 22.2021C154.596 22.2021 154.399 22.2731 154.241 22.3904C154.198 22.4552 154.207 22.4922 154.164 22.5323C153.377 24.603 151.698 25.8189 149.807 25.8189C147.406 25.8189 145.412 23.5291 145.048 20.5416H155.553C156.099 20.5416 156.543 20.1003 156.543 19.551V19.1899C156.383 14.8853 153.38 11.4321 149.807 11.4321ZM145.048 18.5607C145.412 15.5735 147.406 13.2837 149.807 13.2837C152.204 13.2837 154.201 15.5735 154.565 18.5607H145.048Z" fill="#041427"/>
<path d="M191.674 20.1469C191.674 20.1407 191.693 20.008 191.683 20.0046V12.5122C191.683 12.0182 191.285 11.6201 190.792 11.6201C190.298 11.6201 189.9 12.0182 189.9 12.5122C189.9 12.5122 189.903 20.2361 189.909 20.2796C189.748 23.5445 187.289 26.1272 184.373 26.1272C181.432 26.1272 179.179 23.4674 179.062 20.1654C179.065 20.1438 179.065 20.1253 179.065 20.1037V12.3579C179.065 11.8456 178.651 11.4321 178.139 11.4321C177.627 11.4321 177.213 11.8456 177.213 12.3579V19.9216C177.207 19.9309 177.204 19.9401 177.204 19.9494C177.204 24.458 180.272 28.0902 184.373 28.0902C188.474 28.0902 191.674 24.6558 191.674 20.1469Z" fill="#041427"/>
<path d="M175.212 19.0932C175.212 19.0994 175.231 19.2321 175.222 19.2354V26.7279C175.222 27.2219 174.823 27.62 174.33 27.62C173.836 27.62 173.438 27.2219 173.438 26.7279C173.438 26.7279 173.441 19.004 173.447 18.9605C173.286 15.6955 170.827 13.1129 167.911 13.1129C164.97 13.1129 162.717 15.7727 162.6 19.0747C162.603 19.0963 162.603 19.1148 162.603 19.1364V26.8822C162.603 27.3944 162.19 27.8079 161.677 27.8079C161.165 27.8079 160.751 27.3944 160.751 26.8822V19.3185C160.745 19.3092 160.742 19.2999 160.742 19.2907C160.742 14.7821 163.81 11.1499 167.911 11.1499C172.012 11.1499 175.212 14.5846 175.212 19.0932Z" fill="#041427"/>
<path d="M162.64 18.3287C162.628 18.8104 162.643 19.31 162.585 19.7822C162.538 19.7668 162.257 19.7239 161.952 19.7328C161.582 19.7421 161.381 19.9149 160.751 19.9859C160.77 19.3872 160.73 18.8626 160.742 18.3163C160.77 17.0483 160.239 15.8105 159.363 14.894C158.758 14.2583 158.005 13.817 157.181 13.5948C156.699 13.5331 156.329 13.1196 156.329 12.6197C156.329 12.2956 156.483 12.0089 156.727 11.8297C156.891 11.7062 157.094 11.6318 157.317 11.6318C157.384 11.6318 157.452 11.6383 157.514 11.6534C157.551 11.6596 157.585 11.6689 157.619 11.6781C158.817 11.9867 159.909 12.6193 160.782 13.5359C162.02 14.8323 162.68 16.5357 162.64 18.3287Z" fill="#041427"/>
<path d="M200.263 10.6763C196.584 10.6763 193.591 14.3177 193.591 18.7954C193.591 23.2732 196.584 26.9149 200.263 26.9149C202.722 26.9149 204.876 25.2883 206.03 22.8692C206.086 22.7551 206.138 22.6378 206.188 22.5174C206.2 22.4616 206.206 22.4032 206.206 22.3443C206.206 22.0851 206.092 21.8536 205.907 21.6901C205.74 21.5392 205.515 21.4463 205.268 21.4463C205.052 21.4463 204.855 21.5173 204.697 21.6345C204.654 21.6993 204.663 21.7364 204.62 21.7765C203.833 23.8472 202.154 25.0631 200.263 25.0631C197.862 25.0631 195.868 22.7733 195.504 19.7857H206.009C206.555 19.7857 206.999 19.3444 206.999 18.7951V18.4341C206.839 14.1292 203.836 10.6763 200.263 10.6763ZM195.504 17.8045C195.868 14.8173 197.862 12.5275 200.263 12.5275C202.66 12.5275 204.657 14.8173 205.021 17.8045H195.504Z" fill="#041427"/>
</svg>
