<svg width="165" height="49" viewBox="0 0 165 49" fill="none" xmlns="http://www.w3.org/2000/svg">
<path d="M158.714 0H6.10438C2.73302 0 0 2.74224 0 6.12497V42.8748C0 46.2575 2.73302 48.9998 6.10438 48.9998H158.714C162.085 48.9998 164.818 46.2575 164.818 42.8748V6.12497C164.818 2.74224 162.085 0 158.714 0Z" fill="black"/>
<path d="M158.714 0.979949C160.073 0.981524 161.377 1.52413 162.338 2.48871C163.299 3.4533 163.84 4.76109 163.841 6.12517V42.875C163.84 44.2391 163.299 45.5468 162.338 46.5114C161.377 47.476 160.073 48.0186 158.714 48.0202H6.10438C4.74487 48.0186 3.4415 47.476 2.48021 46.5115C1.51891 45.5469 0.978203 44.2391 0.9767 42.875V6.12517C0.97818 4.76107 1.51888 3.45326 2.48018 2.48867C3.44148 1.52409 4.74486 0.981498 6.10438 0.979949H158.714ZM158.714 0.000198364H6.10438C4.48685 0.00494901 2.93693 0.651782 1.79316 1.79941C0.649393 2.94703 0.00473467 4.50219 0 6.12517L0 42.875C0.00473467 44.498 0.649393 46.0531 1.79316 47.2007C2.93693 48.3484 4.48685 48.9952 6.10438 49H158.714C160.331 48.9952 161.881 48.3484 163.025 47.2007C164.169 46.0531 164.813 44.498 164.818 42.875V6.12517C164.813 4.50219 164.169 2.94703 163.025 1.79941C161.881 0.651782 160.331 0.00494901 158.714 0.000198364Z" fill="#A6A6A6"/>
<path d="M57.8918 12.5486C57.914 12.9981 57.8448 13.4474 57.6884 13.8692C57.532 14.291 57.2916 14.6765 56.982 15.0021C56.635 15.3632 56.216 15.6467 55.7523 15.8341C55.2885 16.0215 54.7906 16.1085 54.2911 16.0895C53.7884 16.094 53.2898 15.9977 52.8247 15.8061C52.3596 15.6145 51.9374 15.3316 51.5828 14.9739C51.2283 14.6163 50.9486 14.1911 50.7601 13.7235C50.5717 13.2558 50.4783 12.755 50.4855 12.2506C50.4784 11.7462 50.5718 11.2455 50.7602 10.7778C50.9487 10.3101 51.2284 9.88494 51.5829 9.52725C51.9375 9.16956 52.3597 8.88657 52.8247 8.6949C53.2898 8.50324 53.7883 8.40676 54.2911 8.41114C54.808 8.40957 55.3197 8.51443 55.7946 8.71922C56.2356 8.89861 56.6282 9.18 56.9404 9.54046L56.2965 10.187C56.0511 9.89724 55.7427 9.66791 55.395 9.5167C55.0473 9.3655 54.6696 9.29647 54.2911 9.31494C53.9101 9.31296 53.5326 9.38816 53.1812 9.53603C52.8299 9.6839 52.5119 9.9014 52.2462 10.1755C51.9806 10.4496 51.7729 10.7747 51.6355 11.1312C51.4981 11.4878 51.4338 11.8685 51.4464 12.2506C51.4374 12.8229 51.5979 13.3851 51.9076 13.8657C52.2173 14.3464 52.6624 14.724 53.1862 14.9505C53.7101 15.1771 54.2892 15.2425 54.8502 15.1383C55.4111 15.0342 55.9286 14.7653 56.337 14.3657C56.7129 13.9593 56.9308 13.4309 56.951 12.8769H54.2911V11.994H57.8405C57.8741 12.1769 57.8913 12.3625 57.8918 12.5486Z" fill="white" stroke="white" stroke-width="0.222727" stroke-miterlimit="10"/>
<path d="M63.5195 9.47732H60.1836V11.8076H63.1917V12.6906H60.1836V15.0209H63.5195V15.9241H59.2429V8.57413H63.5195V9.47732Z" fill="white" stroke="white" stroke-width="0.222727" stroke-miterlimit="10"/>
<path d="M67.4886 15.9241H66.5467V9.47732H64.5007V8.57413H69.5345V9.47732H67.4886V15.9241Z" fill="white" stroke="white" stroke-width="0.222727" stroke-miterlimit="10"/>
<path d="M73.1765 15.9241V8.57413H74.1172V15.9241H73.1765Z" fill="white" stroke="white" stroke-width="0.222727" stroke-miterlimit="10"/>
<path d="M78.2924 15.9241H77.3505V9.47732H75.3047V8.57413H80.3384V9.47732H78.2924V15.9241Z" fill="white" stroke="white" stroke-width="0.222727" stroke-miterlimit="10"/>
<path d="M89.8678 14.9756C89.1548 15.6889 88.1891 16.0894 87.1823 16.0894C86.1755 16.0894 85.2097 15.6889 84.4967 14.9756C84.144 14.6171 83.8667 14.1912 83.6813 13.723C83.496 13.2549 83.4063 12.7541 83.4177 12.2505C83.4063 11.7469 83.496 11.2461 83.6813 10.778C83.8667 10.3098 84.144 9.88384 84.4967 9.52537C84.8491 9.17168 85.2676 8.89119 85.7282 8.69997C86.1888 8.50875 86.6824 8.41055 87.1809 8.411C87.6793 8.41144 88.1728 8.51052 88.6331 8.70256C89.0933 8.8946 89.5113 9.17583 89.8631 9.53015C90.2161 9.88767 90.4939 10.3127 90.68 10.78C90.8662 11.2473 90.9569 11.7473 90.9468 12.2505C90.9579 12.7541 90.8681 13.2547 90.6828 13.7229C90.4974 14.191 90.2203 14.617 89.8678 14.9756ZM85.1918 14.3602C85.7198 14.8891 86.4355 15.1862 87.1817 15.1862C87.9278 15.1862 88.6435 14.8891 89.1716 14.3602C89.4424 14.082 89.6541 13.7516 89.7941 13.389C89.9341 13.0264 89.9993 12.6391 89.9859 12.2505C89.9993 11.8619 89.9341 11.4746 89.7941 11.112C89.6541 10.7494 89.4424 10.419 89.1716 10.1408C88.6435 9.61186 87.9278 9.31478 87.1817 9.31478C86.4355 9.31478 85.7198 9.61186 85.1918 10.1408C84.9214 10.4192 84.7099 10.7496 84.5702 11.1122C84.4304 11.4748 84.3653 11.862 84.3787 12.2505C84.3653 12.639 84.4304 13.0262 84.5702 13.3888C84.7099 13.7513 84.9214 14.0818 85.1918 14.3602Z" fill="white" stroke="white" stroke-width="0.222727" stroke-miterlimit="10"/>
<path d="M92.2676 15.9241V8.57413H93.4134L96.9734 14.2918H97.014L96.9734 12.8753V8.57413H97.9154V15.9241H96.9329L93.2083 9.92946H93.1677L93.2083 11.3459V15.9241H92.2676Z" fill="white" stroke="white" stroke-width="0.222727" stroke-miterlimit="10"/>
<path d="M83.1853 26.6465C82.1591 26.6504 81.1571 26.9593 80.3058 27.5342C79.4545 28.1091 78.792 28.9241 78.402 29.8765C78.012 30.8289 77.912 31.8758 78.1146 32.8852C78.3171 33.8946 78.8132 34.8211 79.5402 35.5477C80.2672 36.2744 81.1925 36.7687 82.1992 36.9681C83.2059 37.1675 84.249 37.0632 85.1967 36.6682C86.1444 36.2733 86.9542 35.6055 87.5239 34.7491C88.0935 33.8927 88.3976 32.8862 88.3976 31.8566C88.4077 31.1679 88.2796 30.4842 88.021 29.8462C87.7623 29.2083 87.3785 28.629 86.8922 28.1429C86.4059 27.6568 85.8271 27.2739 85.1903 27.0168C84.5534 26.7597 83.8716 26.6338 83.1853 26.6465ZM83.1853 35.0142C82.5533 35.0594 81.9225 34.9127 81.3748 34.5931C80.8271 34.2735 80.388 33.7959 80.1147 33.2224C79.8413 32.6489 79.7464 32.0061 79.8422 31.3778C79.9381 30.7494 80.2202 30.1645 80.652 29.6993C81.0838 29.2341 81.6451 28.9101 82.263 28.7694C82.8809 28.6288 83.5266 28.6781 84.1162 28.9109C84.7057 29.1436 85.2118 29.5491 85.5684 30.0745C85.9251 30.5999 86.1159 31.2209 86.1159 31.8566C86.1351 32.2582 86.074 32.6596 85.9362 33.0371C85.7984 33.4147 85.5868 33.7608 85.3137 34.055C85.0406 34.3492 84.7116 34.5857 84.3461 34.7504C83.9806 34.9152 83.5859 35.0049 83.1853 35.0142ZM71.8148 26.6465C70.7886 26.6504 69.7866 26.9593 68.9353 27.5341C68.0839 28.109 67.4214 28.9241 67.0314 29.8764C66.6414 30.8288 66.5414 31.8758 66.7439 32.8851C66.9465 33.8945 67.4426 34.821 68.1696 35.5477C68.8965 36.2744 69.8218 36.7686 70.8285 36.9681C71.8353 37.1675 72.8783 37.0632 73.826 36.6683C74.7737 36.2733 75.5835 35.6055 76.1532 34.7491C76.7229 33.8927 77.027 32.8862 77.0269 31.8566C77.037 31.1679 76.909 30.4843 76.6503 29.8463C76.3917 29.2083 76.0079 28.629 75.5216 28.143C75.0353 27.6569 74.4565 27.2739 73.8197 27.0168C73.1829 26.7597 72.5011 26.6338 71.8148 26.6465ZM71.8148 35.0142C71.1828 35.0594 70.552 34.9127 70.0043 34.5931C69.4566 34.2735 69.0175 33.7959 68.7442 33.2224C68.4708 32.6489 68.3759 32.0061 68.4717 31.3778C68.5676 30.7494 68.8497 30.1645 69.2815 29.6993C69.7133 29.2341 70.2746 28.9101 70.8925 28.7694C71.5104 28.6288 72.1561 28.6781 72.7457 28.9109C73.3352 29.1436 73.8413 29.5491 74.1979 30.0745C74.5546 30.5999 74.7454 31.2209 74.7454 31.8566C74.7646 32.2582 74.7035 32.6596 74.5657 33.0371C74.428 33.4147 74.2163 33.7608 73.9432 34.055C73.6701 34.3493 73.3412 34.5857 72.9756 34.7504C72.6101 34.9152 72.2154 35.0049 71.8148 35.0142ZM58.289 28.2452V30.4554H63.5603C63.4843 31.4921 63.0615 32.4727 62.3604 33.2381C61.8322 33.7784 61.1969 34.2015 60.4957 34.4802C59.7944 34.759 59.0426 34.8871 58.289 34.8563C56.7482 34.8354 55.2776 34.2066 54.1954 33.1059C53.1132 32.0053 52.5065 30.5214 52.5065 28.9753C52.5065 27.4292 53.1132 25.9452 54.1954 24.8446C55.2776 23.7439 56.7482 23.1151 58.289 23.0942C59.7689 23.0748 61.1967 23.6421 62.2622 24.673L63.816 23.1139C63.089 22.3918 62.2257 21.8226 61.2766 21.4396C60.3275 21.0567 59.3118 20.8677 58.289 20.8838C57.2201 20.8682 56.1587 21.0659 55.1667 21.4656C54.1747 21.8652 53.2717 22.4587 52.5103 23.2116C51.7489 23.9645 51.1443 24.8618 50.7316 25.8513C50.319 26.8407 50.1064 27.9026 50.1064 28.9753C50.1064 30.0479 50.319 31.1098 50.7316 32.0992C51.1443 33.0887 51.7489 33.986 52.5103 34.7389C53.2717 35.4918 54.1747 36.0853 55.1667 36.4849C56.1587 36.8846 57.2201 37.0823 58.289 37.0667C59.3334 37.1102 60.375 36.9303 61.3449 36.539C62.3147 36.1477 63.1906 35.554 63.9143 34.7972C65.1991 33.39 65.884 31.534 65.8222 29.6266C65.8273 29.1634 65.7877 28.7007 65.7041 28.2452H58.289ZM113.605 29.962C113.293 29.0183 112.699 28.1939 111.903 27.6007C111.108 27.0075 110.15 26.6744 109.16 26.6465C108.492 26.6507 107.833 26.7906 107.221 27.0577C106.609 27.3247 106.058 27.7135 105.6 28.2005C105.142 28.6875 104.788 29.2626 104.558 29.891C104.328 30.5194 104.227 31.1881 104.262 31.8566C104.247 32.5416 104.37 33.2226 104.623 33.8589C104.876 34.4952 105.254 35.0739 105.735 35.5602C106.216 36.0465 106.79 36.4306 107.423 36.6894C108.055 36.9482 108.733 37.0766 109.415 37.0667C110.271 37.0715 111.114 36.863 111.869 36.46C112.624 36.0569 113.268 35.472 113.742 34.7577L111.972 33.5736C111.707 34.0155 111.332 34.3807 110.884 34.6332C110.435 34.8858 109.929 35.0171 109.415 35.0142C108.886 35.0345 108.363 34.8949 107.914 34.6134C107.466 34.3318 107.111 33.9215 106.898 33.4355L113.841 30.5542L113.605 29.962ZM106.524 31.6988C106.5 31.3196 106.551 30.9393 106.675 30.5802C106.798 30.221 106.992 29.8903 107.245 29.6073C107.498 29.3243 107.804 29.0947 108.146 28.932C108.489 28.7692 108.86 28.6766 109.238 28.6596C109.632 28.6336 110.025 28.7245 110.368 28.921C110.711 29.1176 110.988 29.411 111.166 29.7648L106.524 31.6988ZM100.879 36.7509H103.161V21.4365H100.879V36.7509ZM97.1418 27.8109H97.0632C96.7163 27.4328 96.293 27.1333 95.8215 26.9325C95.35 26.7317 94.8413 26.6342 94.3292 26.6465C92.9903 26.7037 91.7251 27.2776 90.7978 28.2485C89.8706 29.2193 89.3529 30.512 89.3529 31.8566C89.3529 33.2013 89.8706 34.494 90.7978 35.4648C91.7251 36.4356 92.9903 37.0095 94.3292 37.0667C94.8433 37.0804 95.3542 36.9816 95.8263 36.7771C96.2985 36.5726 96.7206 36.2674 97.0632 35.8826H97.1418V36.6326C97.1418 38.6259 96.0798 39.6915 94.3685 39.6915C93.7982 39.6778 93.2449 39.4941 92.779 39.1637C92.3131 38.8333 91.9558 38.3712 91.7527 37.8364L89.7661 38.6653C90.1405 39.58 90.7786 40.3617 91.5985 40.9102C92.4185 41.4586 93.383 41.749 94.3685 41.744C97.0436 41.744 99.3055 40.1652 99.3055 36.3168V26.9622H97.1418V27.8109ZM94.526 35.0142C93.7374 34.9471 93.0026 34.5854 92.4672 34.0007C91.9317 33.4159 91.6346 32.6507 91.6346 31.8566C91.6346 31.0625 91.9317 30.2974 92.4672 29.7126C93.0026 29.1278 93.7374 28.7661 94.526 28.699C94.9183 28.7182 95.3028 28.8165 95.6565 28.988C96.0101 29.1595 96.3258 29.4007 96.5846 29.6972C96.8434 29.9937 97.04 30.3394 97.1628 30.7138C97.2856 31.0882 97.332 31.4835 97.2992 31.8763C97.3299 32.2666 97.2818 32.6591 97.1578 33.0304C97.0338 33.4016 96.8364 33.7439 96.5776 34.0369C96.3187 34.3298 96.0035 34.5674 95.651 34.7353C95.2985 34.9032 94.9159 34.9981 94.526 35.0142ZM124.292 21.4368H118.833V36.7509H121.111V30.9488H124.292C124.936 30.9843 125.581 30.8876 126.187 30.6646C126.793 30.4415 127.347 30.097 127.816 29.6518C128.284 29.2067 128.657 28.6704 128.913 28.0757C129.168 27.4809 129.299 26.8403 129.299 26.1928C129.299 25.5453 129.168 24.9047 128.913 24.3099C128.657 23.7152 128.284 23.1789 127.816 22.7338C127.347 22.2887 126.793 21.9441 126.187 21.7211C125.581 21.4981 124.936 21.4013 124.292 21.4368ZM124.351 28.8176H121.111V23.5681H124.351C124.699 23.5609 125.045 23.6234 125.369 23.7521C125.693 23.8807 125.987 24.0729 126.236 24.3174C126.485 24.5618 126.682 24.8536 126.817 25.1757C126.952 25.4977 127.022 25.8435 127.022 26.1929C127.022 26.5422 126.952 26.888 126.817 27.2101C126.682 27.5321 126.485 27.8239 126.236 28.0684C125.987 28.3128 125.693 28.505 125.369 28.6336C125.045 28.7623 124.699 28.8248 124.351 28.8176ZM138.43 26.6184C137.598 26.5697 136.771 26.7656 136.049 27.1821C135.327 27.5985 134.742 28.2175 134.365 28.9629L136.388 29.8101C136.588 29.4401 136.892 29.1368 137.261 28.9374C137.631 28.7379 138.051 28.6509 138.469 28.687C139.047 28.6304 139.624 28.806 140.073 29.1753C140.522 29.5446 140.806 30.0775 140.865 30.6572V30.8148C140.133 30.4249 139.317 30.2219 138.489 30.2238C136.309 30.2238 134.09 31.4256 134.09 33.6716C134.111 34.145 134.227 34.6092 134.431 35.0369C134.634 35.4645 134.921 35.8467 135.274 36.161C135.628 36.4752 136.041 36.715 136.488 36.8661C136.936 37.0172 137.409 37.0765 137.88 37.0406C138.453 37.0745 139.026 36.9535 139.537 36.6901C140.048 36.4268 140.479 36.0308 140.786 35.5433H140.865V36.7254H143.064V30.8543C143.064 28.1354 141.041 26.6184 138.43 26.6184ZM138.155 35.0113C137.409 35.0113 136.368 34.6371 136.368 33.711C136.368 32.529 137.664 32.0757 138.783 32.0757C139.51 32.0563 140.229 32.2332 140.865 32.588C140.781 33.2522 140.46 33.8636 139.962 34.3091C139.464 34.7546 138.822 35.004 138.155 35.0113ZM151.075 26.9533L148.464 33.5928H148.385L145.675 26.9533H143.221L147.285 36.2329L144.968 41.3947H147.344L153.608 26.9533H151.075ZM130.556 36.7509H132.834V21.4368H130.556V36.7509Z" fill="white"/>
<path d="M12.7401 9.23511C12.3398 9.7154 12.1376 10.3311 12.1751 10.9561V38.0482C12.1375 38.6732 12.3397 39.289 12.7401 39.7692L12.8305 39.8575L27.9559 24.6812V24.3231L12.8305 9.14618L12.7401 9.23511Z" fill="url(#paint0_linear_1_1724)"/>
<path d="M32.9978 29.7411L27.9563 24.6802V24.3221L32.999 19.2624L33.1127 19.3275L39.0862 22.7331C40.7925 23.7057 40.7925 25.2972 39.0862 26.2705L33.1127 29.6761L32.9978 29.7411Z" fill="url(#paint1_linear_1_1724)"/>
<path d="M33.1126 29.6764L27.9563 24.5022L12.7405 39.7691C13.0881 40.0768 13.5321 40.2528 13.9955 40.2665C14.4589 40.2802 14.9124 40.1309 15.2776 39.8444L33.1126 29.6764Z" fill="url(#paint2_linear_1_1724)"/>
<path d="M33.1126 19.326L15.2776 9.15809C14.9124 8.87156 14.4589 8.72223 13.9955 8.73596C13.5321 8.7497 13.0881 8.92564 12.7405 9.23331L27.9563 24.5004L33.1126 19.326Z" fill="url(#paint3_linear_1_1724)"/>
<path opacity="0.2" d="M32.999 29.5614L15.2776 39.6643C14.9265 39.9325 14.498 40.0788 14.0567 40.0812C13.6154 40.0835 13.1854 39.9418 12.8314 39.6774L12.7405 39.7687L12.8308 39.857L12.8314 39.8564C13.1853 40.1209 13.6154 40.2627 14.0567 40.2604C14.498 40.258 14.9265 40.1116 15.2776 39.8433L33.1126 29.6753L32.999 29.5614Z" fill="black"/>
<path opacity="0.12" d="M12.7401 39.589C12.3398 39.1087 12.1376 38.493 12.1751 37.868V38.047C12.1376 38.6719 12.3398 39.2876 12.7401 39.7679L12.831 39.6767L12.7401 39.589Z" fill="black"/>
<path opacity="0.12" d="M39.0857 26.0914L32.9985 29.562L33.1122 29.6759L39.0857 26.2703C39.4371 26.1173 39.7412 25.8726 39.9662 25.5616C40.1913 25.2506 40.3292 24.8848 40.3655 24.5022C40.29 24.8487 40.135 25.1727 39.9128 25.4486C39.6907 25.7244 39.4075 25.9445 39.0857 26.0914Z" fill="black"/>
<path opacity="0.25" d="M15.2772 9.33947L39.0857 22.9124C39.4076 23.0592 39.6909 23.2794 39.9131 23.5554C40.1353 23.8314 40.2902 24.1556 40.3655 24.5022C40.3295 24.1194 40.1917 23.7534 39.9666 23.4423C39.7415 23.1312 39.4373 22.8864 39.0857 22.7334L15.2772 9.16049C13.5709 8.18773 12.175 8.99573 12.175 10.9567V11.1357C12.175 9.17483 13.5709 8.36682 15.2772 9.33947Z" fill="white"/>
<defs>
<linearGradient id="paint0_linear_1_1724" x1="26.6146" y1="10.6705" x2="6.05632" y2="31.1596" gradientUnits="userSpaceOnUse">
<stop stop-color="#00A0FF"/>
<stop offset="0.00657" stop-color="#00A1FF"/>
<stop offset="0.2601" stop-color="#00BEFF"/>
<stop offset="0.5122" stop-color="#00D2FF"/>
<stop offset="0.7604" stop-color="#00DFFF"/>
<stop offset="1" stop-color="#00E3FF"/>
</linearGradient>
<linearGradient id="paint1_linear_1_1724" x1="41.3078" y1="24.5018" x2="11.7664" y2="24.5018" gradientUnits="userSpaceOnUse">
<stop stop-color="#FFE000"/>
<stop offset="0.4087" stop-color="#FFBD00"/>
<stop offset="0.7754" stop-color="#FFA500"/>
<stop offset="1" stop-color="#FF9C00"/>
</linearGradient>
<linearGradient id="paint2_linear_1_1724" x1="30.3108" y1="27.3136" x2="2.43218" y2="55.0985" gradientUnits="userSpaceOnUse">
<stop stop-color="#FF3A44"/>
<stop offset="1" stop-color="#C31162"/>
</linearGradient>
<linearGradient id="paint3_linear_1_1724" x1="8.90929" y1="0.215124" x2="21.3582" y2="12.6222" gradientUnits="userSpaceOnUse">
<stop stop-color="#32A071"/>
<stop offset="0.0685" stop-color="#2DA771"/>
<stop offset="0.4762" stop-color="#15CF74"/>
<stop offset="0.8009" stop-color="#06E775"/>
<stop offset="1" stop-color="#00F076"/>
</linearGradient>
</defs>
</svg>
