<svg width="22" height="18" viewBox="0 0 22 18" fill="none" xmlns="http://www.w3.org/2000/svg">
<path d="M0.785715 8.23646H19.4504L13.5575 1.79565C13.4179 1.64185 13.3461 1.43977 13.3579 1.23386C13.3696 1.02796 13.4641 0.835093 13.6204 0.697698C13.7766 0.560303 13.982 0.489632 14.1912 0.501232C14.4005 0.512833 14.5965 0.605754 14.7361 0.759554L21.8075 8.49162L21.8311 8.52255L21.8664 8.56507L21.89 8.59987L21.9214 8.65012L21.945 8.69652V8.73518V8.79317V8.83956V8.87822C21.945 8.89755 21.945 8.91688 21.945 8.93621C21.945 8.95554 22 8.97101 22 9.00967C22 9.04833 22 9.00967 22 9.00967C22 9.00967 22 9.04446 22 9.06379C22 9.08312 22 9.10245 22 9.12178V9.16044V9.20683V9.26482V9.30348L21.9764 9.34988L21.945 9.40013L21.9214 9.43493L21.8861 9.47746L21.8625 9.50838L14.7911 17.2404C14.6515 17.3942 14.4555 17.4872 14.2462 17.4988C14.037 17.5104 13.8316 17.4397 13.6754 17.3023C13.5191 17.1649 13.4246 16.972 13.4129 16.7661C13.4011 16.5602 13.4729 16.3582 13.6125 16.2044L19.4504 9.78287H0.785715C0.57733 9.78287 0.37748 9.70141 0.230131 9.55641C0.0827808 9.4114 0 9.21473 0 9.00967C0 8.8046 0.0827808 8.60793 0.230131 8.46293C0.37748 8.31792 0.57733 8.23646 0.785715 8.23646Z" fill="black"/>
</svg>
