<svg width="363" height="597" viewBox="0 0 363 597" fill="none" xmlns="http://www.w3.org/2000/svg">
<g filter="url(#filter0_ddd_1_1363)">
<g filter="url(#filter1_ii_1_1363)">
<rect x="16" y="15" width="331" height="688.81" rx="50" fill="#F3F5F7"/>
</g>
<g clip-path="url(#clip0_1_1363)">
<rect x="27.9639" y="28.9578" width="307.072" height="660.006" rx="29" fill="white"/>
<rect width="314" height="679.915" transform="translate(24 17.4211)" fill="white"/>
<path d="M37 44.0012C37 40.1352 40.134 37.0012 44 37.0012H319C322.866 37.0012 326 40.1352 326 44.0012V81.0012H37V44.0012Z" fill="#EBF2FF" fill-opacity="0.5"/>
<path d="M71.3246 58.7564V66.4976H70.2084V57.5082H71.2286L71.3246 58.7564ZM75.6993 60.7007V60.8267C75.6993 61.2988 75.6433 61.7369 75.5313 62.1409C75.4193 62.541 75.2553 62.889 75.0392 63.1851C74.8272 63.4811 74.5651 63.7112 74.2531 63.8752C73.941 64.0392 73.583 64.1212 73.1789 64.1212C72.7669 64.1212 72.4028 64.0532 72.0867 63.9172C71.7707 63.7812 71.5026 63.5832 71.2826 63.3231C71.0626 63.0631 70.8865 62.751 70.7545 62.387C70.6265 62.0229 70.5385 61.6128 70.4905 61.1568V60.4846C70.5385 60.0046 70.6285 59.5745 70.7605 59.1944C70.8925 58.8144 71.0666 58.4903 71.2826 58.2223C71.5026 57.9502 71.7687 57.7442 72.0807 57.6042C72.3928 57.4602 72.7528 57.3881 73.1609 57.3881C73.569 57.3881 73.931 57.4682 74.2471 57.6282C74.5631 57.7842 74.8292 58.0082 75.0452 58.3003C75.2613 58.5923 75.4233 58.9424 75.5313 59.3505C75.6433 59.7545 75.6993 60.2046 75.6993 60.7007ZM74.5831 60.8267V60.7007C74.5831 60.3766 74.5491 60.0726 74.4811 59.7885C74.4131 59.5005 74.3071 59.2484 74.1631 59.0324C74.0231 58.8124 73.843 58.6403 73.623 58.5163C73.403 58.3883 73.1409 58.3243 72.8369 58.3243C72.5568 58.3243 72.3128 58.3723 72.1047 58.4683C71.9007 58.5643 71.7267 58.6944 71.5827 58.8584C71.4386 59.0184 71.3206 59.2024 71.2286 59.4105C71.1406 59.6145 71.0746 59.8265 71.0306 60.0466V61.6008C71.1106 61.8809 71.2226 62.1449 71.3666 62.393C71.5106 62.637 71.7027 62.835 71.9427 62.9871C72.1828 63.1351 72.4848 63.2091 72.8489 63.2091C73.1489 63.2091 73.407 63.1471 73.623 63.0231C73.843 62.895 74.0231 62.721 74.1631 62.501C74.3071 62.2809 74.4131 62.0289 74.4811 61.7449C74.5491 61.4568 74.5831 61.1508 74.5831 60.8267ZM76.8215 60.8267V60.6887C76.8215 60.2206 76.8895 59.7865 77.0255 59.3865C77.1616 58.9824 77.3576 58.6323 77.6136 58.3363C77.8697 58.0363 78.1797 57.8042 78.5438 57.6402C78.9078 57.4722 79.3159 57.3881 79.768 57.3881C80.2241 57.3881 80.6341 57.4722 80.9982 57.6402C81.3663 57.8042 81.6783 58.0363 81.9343 58.3363C82.1944 58.6323 82.3924 58.9824 82.5284 59.3865C82.6645 59.7865 82.7325 60.2206 82.7325 60.6887V60.8267C82.7325 61.2948 82.6645 61.7289 82.5284 62.1289C82.3924 62.529 82.1944 62.879 81.9343 63.1791C81.6783 63.4751 81.3683 63.7072 81.0042 63.8752C80.6441 64.0392 80.2361 64.1212 79.78 64.1212C79.3239 64.1212 78.9139 64.0392 78.5498 63.8752C78.1857 63.7072 77.8737 63.4751 77.6136 63.1791C77.3576 62.879 77.1616 62.529 77.0255 62.1289C76.8895 61.7289 76.8215 61.2948 76.8215 60.8267ZM77.9317 60.6887V60.8267C77.9317 61.1508 77.9697 61.4568 78.0457 61.7449C78.1217 62.0289 78.2357 62.2809 78.3878 62.501C78.5438 62.721 78.7378 62.895 78.9699 63.0231C79.2019 63.1471 79.4719 63.2091 79.78 63.2091C80.084 63.2091 80.3501 63.1471 80.5781 63.0231C80.8102 62.895 81.0022 62.721 81.1542 62.501C81.3062 62.2809 81.4203 62.0289 81.4963 61.7449C81.5763 61.4568 81.6163 61.1508 81.6163 60.8267V60.6887C81.6163 60.3686 81.5763 60.0666 81.4963 59.7825C81.4203 59.4945 81.3042 59.2404 81.1482 59.0204C80.9962 58.7964 80.8042 58.6203 80.5721 58.4923C80.3441 58.3643 80.076 58.3003 79.768 58.3003C79.4639 58.3003 79.1959 58.3643 78.9639 58.4923C78.7358 58.6203 78.5438 58.7964 78.3878 59.0204C78.2357 59.2404 78.1217 59.4945 78.0457 59.7825C77.9697 60.0666 77.9317 60.3686 77.9317 60.6887ZM86.8431 57.5082V58.3603H83.3326V57.5082H86.8431ZM84.5208 55.9299H85.6309V62.393C85.6309 62.613 85.6649 62.779 85.733 62.891C85.801 63.0031 85.889 63.0771 85.997 63.1131C86.105 63.1491 86.221 63.1671 86.3451 63.1671C86.4371 63.1671 86.5331 63.1591 86.6331 63.1431C86.7371 63.1231 86.8151 63.1071 86.8671 63.0951L86.8731 64.0012C86.7851 64.0292 86.6691 64.0552 86.5251 64.0792C86.3851 64.1072 86.215 64.1212 86.015 64.1212C85.743 64.1212 85.4929 64.0672 85.2649 63.9592C85.0368 63.8512 84.8548 63.6712 84.7188 63.4191C84.5868 63.1631 84.5208 62.819 84.5208 62.387V55.9299ZM89.2555 54.7837V64.0012H88.1454V54.7837H89.2555ZM88.9915 60.5087L88.5294 60.4906C88.5334 60.0466 88.5994 59.6365 88.7274 59.2604C88.8555 58.8804 89.0355 58.5503 89.2675 58.2703C89.4996 57.9902 89.7756 57.7742 90.0957 57.6222C90.4197 57.4662 90.7778 57.3881 91.1698 57.3881C91.4899 57.3881 91.7779 57.4322 92.034 57.5202C92.29 57.6042 92.5081 57.7402 92.6881 57.9282C92.8721 58.1163 93.0121 58.3603 93.1082 58.6604C93.2042 58.9564 93.2522 59.3185 93.2522 59.7465V64.0012H92.136V59.7345C92.136 59.3945 92.086 59.1224 91.986 58.9184C91.886 58.7104 91.7399 58.5603 91.5479 58.4683C91.3559 58.3723 91.1198 58.3243 90.8398 58.3243C90.5637 58.3243 90.3117 58.3823 90.0837 58.4983C89.8596 58.6143 89.6656 58.7744 89.5016 58.9784C89.3415 59.1824 89.2155 59.4165 89.1235 59.6805C89.0355 59.9406 88.9915 60.2166 88.9915 60.5087ZM94.6204 60.8267V60.6887C94.6204 60.2206 94.6884 59.7865 94.8244 59.3865C94.9605 58.9824 95.1565 58.6323 95.4125 58.3363C95.6686 58.0363 95.9786 57.8042 96.3427 57.6402C96.7067 57.4722 97.1148 57.3881 97.5669 57.3881C98.023 57.3881 98.433 57.4722 98.7971 57.6402C99.1651 57.8042 99.4772 58.0363 99.7332 58.3363C99.9933 58.6323 100.191 58.9824 100.327 59.3865C100.463 59.7865 100.531 60.2206 100.531 60.6887V60.8267C100.531 61.2948 100.463 61.7289 100.327 62.1289C100.191 62.529 99.9933 62.879 99.7332 63.1791C99.4772 63.4751 99.1671 63.7072 98.8031 63.8752C98.443 64.0392 98.035 64.1212 97.5789 64.1212C97.1228 64.1212 96.7127 64.0392 96.3487 63.8752C95.9846 63.7072 95.6726 63.4751 95.4125 63.1791C95.1565 62.879 94.9605 62.529 94.8244 62.1289C94.6884 61.7289 94.6204 61.2948 94.6204 60.8267ZM95.7306 60.6887V60.8267C95.7306 61.1508 95.7686 61.4568 95.8446 61.7449C95.9206 62.0289 96.0346 62.2809 96.1867 62.501C96.3427 62.721 96.5367 62.895 96.7688 63.0231C97.0008 63.1471 97.2708 63.2091 97.5789 63.2091C97.8829 63.2091 98.149 63.1471 98.377 63.0231C98.6091 62.895 98.8011 62.721 98.9531 62.501C99.1051 62.2809 99.2192 62.0289 99.2952 61.7449C99.3752 61.4568 99.4152 61.1508 99.4152 60.8267V60.6887C99.4152 60.3686 99.3752 60.0666 99.2952 59.7825C99.2192 59.4945 99.1031 59.2404 98.9471 59.0204C98.7951 58.7964 98.6031 58.6203 98.371 58.4923C98.143 58.3643 97.8749 58.3003 97.5669 58.3003C97.2628 58.3003 96.9948 58.3643 96.7628 58.4923C96.5347 58.6203 96.3427 58.7964 96.1867 59.0204C96.0346 59.2404 95.9206 59.4945 95.8446 59.7825C95.7686 60.0666 95.7306 60.3686 95.7306 60.6887ZM103.13 54.7837V64.0012H102.014V54.7837H103.13ZM107.607 64.1212C107.154 64.1212 106.744 64.0452 106.376 63.8932C106.012 63.7372 105.698 63.5191 105.434 63.2391C105.174 62.9591 104.974 62.627 104.834 62.2429C104.694 61.8589 104.624 61.4388 104.624 60.9827V60.7307C104.624 60.2026 104.702 59.7325 104.858 59.3205C105.014 58.9044 105.226 58.5523 105.494 58.2643C105.762 57.9762 106.066 57.7582 106.406 57.6102C106.746 57.4622 107.098 57.3881 107.462 57.3881C107.927 57.3881 108.327 57.4682 108.663 57.6282C109.003 57.7882 109.281 58.0122 109.497 58.3003C109.713 58.5843 109.873 58.9204 109.977 59.3085C110.081 59.6925 110.133 60.1126 110.133 60.5687V61.0667H105.284V60.1606H109.023V60.0766C109.007 59.7885 108.947 59.5085 108.843 59.2364C108.743 58.9644 108.583 58.7404 108.363 58.5643C108.143 58.3883 107.843 58.3003 107.462 58.3003C107.21 58.3003 106.978 58.3543 106.766 58.4623C106.554 58.5663 106.372 58.7224 106.22 58.9304C106.068 59.1384 105.95 59.3925 105.866 59.6925C105.782 59.9926 105.74 60.3386 105.74 60.7307V60.9827C105.74 61.2908 105.782 61.5808 105.866 61.8529C105.954 62.1209 106.08 62.357 106.244 62.561C106.412 62.765 106.614 62.925 106.85 63.0411C107.09 63.1571 107.362 63.2151 107.667 63.2151C108.059 63.2151 108.391 63.1351 108.663 62.9751C108.935 62.815 109.173 62.601 109.377 62.3329L110.049 62.867C109.909 63.0791 109.731 63.2811 109.515 63.4731C109.299 63.6652 109.033 63.8212 108.717 63.9412C108.405 64.0612 108.035 64.1212 107.607 64.1212ZM111.447 63.4131C111.447 63.2251 111.505 63.0671 111.621 62.939C111.741 62.807 111.913 62.741 112.137 62.741C112.361 62.741 112.531 62.807 112.647 62.939C112.767 63.0671 112.827 63.2251 112.827 63.4131C112.827 63.5972 112.767 63.7532 112.647 63.8812C112.531 64.0092 112.361 64.0732 112.137 64.0732C111.913 64.0732 111.741 64.0092 111.621 63.8812C111.505 63.7532 111.447 63.5972 111.447 63.4131ZM115.78 58.7564V66.4976H114.664V57.5082H115.684L115.78 58.7564ZM120.155 60.7007V60.8267C120.155 61.2988 120.099 61.7369 119.987 62.1409C119.875 62.541 119.71 62.889 119.494 63.1851C119.282 63.4811 119.02 63.7112 118.708 63.8752C118.396 64.0392 118.038 64.1212 117.634 64.1212C117.222 64.1212 116.858 64.0532 116.542 63.9172C116.226 63.7812 115.958 63.5832 115.738 63.3231C115.518 63.0631 115.342 62.751 115.21 62.387C115.082 62.0229 114.994 61.6128 114.946 61.1568V60.4846C114.994 60.0046 115.084 59.5745 115.216 59.1944C115.348 58.8144 115.522 58.4903 115.738 58.2223C115.958 57.9502 116.224 57.7442 116.536 57.6042C116.848 57.4602 117.208 57.3881 117.616 57.3881C118.024 57.3881 118.386 57.4682 118.702 57.6282C119.018 57.7842 119.284 58.0082 119.5 58.3003C119.716 58.5923 119.879 58.9424 119.987 59.3505C120.099 59.7545 120.155 60.2046 120.155 60.7007ZM119.038 60.8267V60.7007C119.038 60.3766 119.004 60.0726 118.936 59.7885C118.868 59.5005 118.762 59.2484 118.618 59.0324C118.478 58.8124 118.298 58.6403 118.078 58.5163C117.858 58.3883 117.596 58.3243 117.292 58.3243C117.012 58.3243 116.768 58.3723 116.56 58.4683C116.356 58.5643 116.182 58.6944 116.038 58.8584C115.894 59.0184 115.776 59.2024 115.684 59.4105C115.596 59.6145 115.53 59.8265 115.486 60.0466V61.6008C115.566 61.8809 115.678 62.1449 115.822 62.393C115.966 62.637 116.158 62.835 116.398 62.9871C116.638 63.1351 116.94 63.2091 117.304 63.2091C117.604 63.2091 117.862 63.1471 118.078 63.0231C118.298 62.895 118.478 62.721 118.618 62.501C118.762 62.2809 118.868 62.0289 118.936 61.7449C119.004 61.4568 119.038 61.1508 119.038 60.8267ZM125.399 62.891V59.5485C125.399 59.2925 125.347 59.0704 125.243 58.8824C125.143 58.6904 124.991 58.5423 124.787 58.4383C124.583 58.3343 124.331 58.2823 124.031 58.2823C123.751 58.2823 123.505 58.3303 123.293 58.4263C123.085 58.5223 122.921 58.6483 122.801 58.8044C122.685 58.9604 122.627 59.1284 122.627 59.3085H121.517C121.517 59.0764 121.577 58.8464 121.697 58.6183C121.817 58.3903 121.989 58.1843 122.213 58.0002C122.441 57.8122 122.713 57.6642 123.029 57.5562C123.349 57.4442 123.705 57.3881 124.097 57.3881C124.569 57.3881 124.985 57.4682 125.345 57.6282C125.709 57.7882 125.994 58.0302 126.198 58.3543C126.406 58.6744 126.51 59.0764 126.51 59.5605V62.585C126.51 62.801 126.528 63.0311 126.564 63.2751C126.604 63.5191 126.662 63.7292 126.738 63.9052V64.0012H125.579C125.523 63.8732 125.479 63.7032 125.447 63.4911C125.415 63.2751 125.399 63.0751 125.399 62.891ZM125.591 60.0646L125.603 60.8447H124.481C124.165 60.8447 123.883 60.8707 123.635 60.9227C123.387 60.9707 123.179 61.0447 123.011 61.1448C122.843 61.2448 122.715 61.3708 122.627 61.5228C122.539 61.6708 122.495 61.8449 122.495 62.0449C122.495 62.2489 122.541 62.435 122.633 62.603C122.725 62.771 122.863 62.905 123.047 63.0051C123.235 63.1011 123.465 63.1491 123.737 63.1491C124.077 63.1491 124.377 63.0771 124.637 62.933C124.897 62.789 125.103 62.613 125.255 62.405C125.411 62.1969 125.495 61.9949 125.507 61.7989L125.982 62.3329C125.954 62.501 125.877 62.687 125.753 62.891C125.629 63.0951 125.463 63.2911 125.255 63.4791C125.051 63.6632 124.807 63.8172 124.523 63.9412C124.243 64.0612 123.927 64.1212 123.575 64.1212C123.135 64.1212 122.749 64.0352 122.417 63.8632C122.089 63.6912 121.833 63.4611 121.649 63.1731C121.469 62.881 121.379 62.555 121.379 62.1949C121.379 61.8469 121.447 61.5408 121.583 61.2768C121.719 61.0087 121.915 60.7867 122.171 60.6107C122.427 60.4306 122.735 60.2946 123.095 60.2026C123.455 60.1106 123.857 60.0646 124.301 60.0646H125.591ZM132.463 57.5082H133.471V63.8632C133.471 64.4353 133.355 64.9234 133.123 65.3274C132.891 65.7315 132.567 66.0376 132.151 66.2456C131.738 66.4576 131.262 66.5636 130.722 66.5636C130.498 66.5636 130.234 66.5276 129.93 66.4556C129.63 66.3876 129.334 66.2696 129.042 66.1016C128.754 65.9375 128.512 65.7155 128.316 65.4355L128.898 64.7753C129.17 65.1034 129.454 65.3314 129.75 65.4595C130.05 65.5875 130.346 65.6515 130.638 65.6515C130.99 65.6515 131.294 65.5855 131.55 65.4535C131.806 65.3214 132.004 65.1254 132.145 64.8654C132.289 64.6093 132.361 64.2933 132.361 63.9172V58.9364L132.463 57.5082ZM127.992 60.8267V60.7007C127.992 60.2046 128.05 59.7545 128.166 59.3505C128.286 58.9424 128.456 58.5923 128.676 58.3003C128.9 58.0082 129.17 57.7842 129.486 57.6282C129.802 57.4682 130.158 57.3881 130.554 57.3881C130.962 57.3881 131.318 57.4602 131.622 57.6042C131.93 57.7442 132.191 57.9502 132.403 58.2223C132.619 58.4903 132.789 58.8144 132.913 59.1944C133.037 59.5745 133.123 60.0046 133.171 60.4846V61.0367C133.127 61.5128 133.041 61.9409 132.913 62.3209C132.789 62.701 132.619 63.0251 132.403 63.2931C132.191 63.5611 131.93 63.7672 131.622 63.9112C131.314 64.0512 130.954 64.1212 130.542 64.1212C130.154 64.1212 129.802 64.0392 129.486 63.8752C129.174 63.7112 128.906 63.4811 128.682 63.1851C128.458 62.889 128.286 62.541 128.166 62.1409C128.05 61.7369 127.992 61.2988 127.992 60.8267ZM129.102 60.7007V60.8267C129.102 61.1508 129.134 61.4548 129.198 61.7389C129.266 62.0229 129.368 62.2729 129.504 62.489C129.644 62.705 129.822 62.875 130.038 62.9991C130.254 63.1191 130.512 63.1791 130.812 63.1791C131.18 63.1791 131.484 63.1011 131.724 62.945C131.964 62.789 132.155 62.583 132.295 62.3269C132.439 62.0709 132.551 61.7929 132.631 61.4928V60.0466C132.587 59.8265 132.519 59.6145 132.427 59.4105C132.339 59.2024 132.223 59.0184 132.079 58.8584C131.938 58.6944 131.764 58.5643 131.556 58.4683C131.348 58.3723 131.104 58.3243 130.824 58.3243C130.52 58.3243 130.258 58.3883 130.038 58.5163C129.822 58.6403 129.644 58.8124 129.504 59.0324C129.368 59.2484 129.266 59.5005 129.198 59.7885C129.134 60.0726 129.102 60.3766 129.102 60.7007ZM137.851 64.1212C137.399 64.1212 136.989 64.0452 136.621 63.8932C136.257 63.7372 135.943 63.5191 135.679 63.2391C135.419 62.9591 135.219 62.627 135.079 62.2429C134.939 61.8589 134.869 61.4388 134.869 60.9827V60.7307C134.869 60.2026 134.947 59.7325 135.103 59.3205C135.259 58.9044 135.471 58.5523 135.739 58.2643C136.007 57.9762 136.311 57.7582 136.651 57.6102C136.991 57.4622 137.343 57.3881 137.707 57.3881C138.171 57.3881 138.572 57.4682 138.908 57.6282C139.248 57.7882 139.526 58.0122 139.742 58.3003C139.958 58.5843 140.118 58.9204 140.222 59.3085C140.326 59.6925 140.378 60.1126 140.378 60.5687V61.0667H135.529V60.1606H139.268V60.0766C139.252 59.7885 139.192 59.5085 139.088 59.2364C138.988 58.9644 138.828 58.7404 138.608 58.5643C138.388 58.3883 138.087 58.3003 137.707 58.3003C137.455 58.3003 137.223 58.3543 137.011 58.4623C136.799 58.5663 136.617 58.7224 136.465 58.9304C136.313 59.1384 136.195 59.3925 136.111 59.6925C136.027 59.9926 135.985 60.3386 135.985 60.7307V60.9827C135.985 61.2908 136.027 61.5808 136.111 61.8529C136.199 62.1209 136.325 62.357 136.489 62.561C136.657 62.765 136.859 62.925 137.095 63.0411C137.335 63.1571 137.607 63.2151 137.911 63.2151C138.304 63.2151 138.636 63.1351 138.908 62.9751C139.18 62.815 139.418 62.601 139.622 62.3329L140.294 62.867C140.154 63.0791 139.976 63.2811 139.76 63.4731C139.544 63.6652 139.278 63.8212 138.962 63.9412C138.65 64.0612 138.28 64.1212 137.851 64.1212ZM141.692 63.4131C141.692 63.2251 141.75 63.0671 141.866 62.939C141.986 62.807 142.158 62.741 142.382 62.741C142.606 62.741 142.776 62.807 142.892 62.939C143.012 63.0671 143.072 63.2251 143.072 63.4131C143.072 63.5972 143.012 63.7532 142.892 63.8812C142.776 64.0092 142.606 64.0732 142.382 64.0732C142.158 64.0732 141.986 64.0092 141.866 63.8812C141.75 63.7532 141.692 63.5972 141.692 63.4131ZM146.121 54.7837V64.0012H145.005V54.7837H146.121ZM149.109 57.5082V64.0012H147.993V57.5082H149.109ZM147.909 55.7859C147.909 55.6059 147.963 55.4538 148.071 55.3298C148.183 55.2058 148.347 55.1438 148.563 55.1438C148.775 55.1438 148.937 55.2058 149.049 55.3298C149.165 55.4538 149.223 55.6059 149.223 55.7859C149.223 55.9579 149.165 56.1059 149.049 56.23C148.937 56.35 148.775 56.41 148.563 56.41C148.347 56.41 148.183 56.35 148.071 56.23C147.963 56.1059 147.909 55.9579 147.909 55.7859ZM152.002 58.8944V64.0012H150.892V57.5082H151.942L152.002 58.8944ZM151.738 60.5087L151.276 60.4906C151.28 60.0466 151.346 59.6365 151.474 59.2604C151.602 58.8804 151.782 58.5503 152.014 58.2703C152.246 57.9902 152.522 57.7742 152.842 57.6222C153.166 57.4662 153.524 57.3881 153.916 57.3881C154.236 57.3881 154.524 57.4322 154.78 57.5202C155.036 57.6042 155.254 57.7402 155.434 57.9282C155.618 58.1163 155.758 58.3603 155.854 58.6604C155.95 58.9564 155.998 59.3185 155.998 59.7465V64.0012H154.882V59.7345C154.882 59.3945 154.832 59.1224 154.732 58.9184C154.632 58.7104 154.486 58.5603 154.294 58.4683C154.102 58.3723 153.866 58.3243 153.586 58.3243C153.31 58.3243 153.058 58.3823 152.83 58.4983C152.606 58.6143 152.412 58.7744 152.248 58.9784C152.088 59.1824 151.962 59.4165 151.87 59.6805C151.782 59.9406 151.738 60.2166 151.738 60.5087ZM158.801 54.7837V64.0012H157.685V54.7837H158.801ZM162.767 57.5082L159.935 60.5387L158.351 62.1829L158.261 61.0007L159.395 59.6445L161.411 57.5082H162.767ZM161.753 64.0012L159.437 60.9047L160.013 59.9146L163.062 64.0012H161.753ZM167.778 55.2638L164.136 64.7513H163.182L166.83 55.2638H167.778ZM172.819 62.891V59.5485C172.819 59.2925 172.767 59.0704 172.663 58.8824C172.563 58.6904 172.411 58.5423 172.207 58.4383C172.003 58.3343 171.751 58.2823 171.451 58.2823C171.171 58.2823 170.925 58.3303 170.713 58.4263C170.505 58.5223 170.341 58.6483 170.221 58.8044C170.105 58.9604 170.047 59.1284 170.047 59.3085H168.937C168.937 59.0764 168.997 58.8464 169.117 58.6183C169.237 58.3903 169.409 58.1843 169.633 58.0002C169.861 57.8122 170.133 57.6642 170.449 57.5562C170.769 57.4442 171.125 57.3881 171.517 57.3881C171.989 57.3881 172.405 57.4682 172.765 57.6282C173.129 57.7882 173.413 58.0302 173.617 58.3543C173.825 58.6744 173.929 59.0764 173.929 59.5605V62.585C173.929 62.801 173.947 63.0311 173.983 63.2751C174.023 63.5191 174.081 63.7292 174.157 63.9052V64.0012H172.999C172.943 63.8732 172.899 63.7032 172.867 63.4911C172.835 63.2751 172.819 63.0751 172.819 62.891ZM173.011 60.0646L173.023 60.8447H171.901C171.585 60.8447 171.303 60.8707 171.055 60.9227C170.807 60.9707 170.599 61.0447 170.431 61.1448C170.263 61.2448 170.135 61.3708 170.047 61.5228C169.959 61.6708 169.915 61.8449 169.915 62.0449C169.915 62.2489 169.961 62.435 170.053 62.603C170.145 62.771 170.283 62.905 170.467 63.0051C170.655 63.1011 170.885 63.1491 171.157 63.1491C171.497 63.1491 171.797 63.0771 172.057 62.933C172.317 62.789 172.523 62.613 172.675 62.405C172.831 62.1969 172.915 61.9949 172.927 61.7989L173.401 62.3329C173.373 62.501 173.297 62.687 173.173 62.891C173.049 63.0951 172.883 63.2911 172.675 63.4791C172.471 63.6632 172.227 63.8172 171.943 63.9412C171.663 64.0612 171.347 64.1212 170.995 64.1212C170.555 64.1212 170.169 64.0352 169.837 63.8632C169.509 63.6912 169.253 63.4611 169.069 63.1731C168.888 62.881 168.798 62.555 168.798 62.1949C168.798 61.8469 168.866 61.5408 169.003 61.2768C169.139 61.0087 169.335 60.7867 169.591 60.6107C169.847 60.4306 170.155 60.2946 170.515 60.2026C170.875 60.1106 171.277 60.0646 171.721 60.0646H173.011ZM176.786 58.7564V66.4976H175.67V57.5082H176.69L176.786 58.7564ZM181.16 60.7007V60.8267C181.16 61.2988 181.104 61.7369 180.992 62.1409C180.88 62.541 180.716 62.889 180.5 63.1851C180.288 63.4811 180.026 63.7112 179.714 63.8752C179.402 64.0392 179.044 64.1212 178.64 64.1212C178.228 64.1212 177.864 64.0532 177.548 63.9172C177.232 63.7812 176.964 63.5832 176.744 63.3231C176.524 63.0631 176.348 62.751 176.216 62.387C176.088 62.0229 176 61.6128 175.952 61.1568V60.4846C176 60.0046 176.09 59.5745 176.222 59.1944C176.354 58.8144 176.528 58.4903 176.744 58.2223C176.964 57.9502 177.23 57.7442 177.542 57.6042C177.854 57.4602 178.214 57.3881 178.622 57.3881C179.03 57.3881 179.392 57.4682 179.708 57.6282C180.024 57.7842 180.29 58.0082 180.506 58.3003C180.722 58.5923 180.884 58.9424 180.992 59.3505C181.104 59.7545 181.16 60.2046 181.16 60.7007ZM180.044 60.8267V60.7007C180.044 60.3766 180.01 60.0726 179.942 59.7885C179.874 59.5005 179.768 59.2484 179.624 59.0324C179.484 58.8124 179.304 58.6403 179.084 58.5163C178.864 58.3883 178.602 58.3243 178.298 58.3243C178.018 58.3243 177.774 58.3723 177.566 58.4683C177.362 58.5643 177.188 58.6944 177.044 58.8584C176.9 59.0184 176.782 59.2024 176.69 59.4105C176.602 59.6145 176.536 59.8265 176.492 60.0466V61.6008C176.572 61.8809 176.684 62.1449 176.828 62.393C176.972 62.637 177.164 62.835 177.404 62.9871C177.644 63.1351 177.946 63.2091 178.31 63.2091C178.61 63.2091 178.868 63.1471 179.084 63.0231C179.304 62.895 179.484 62.721 179.624 62.501C179.768 62.2809 179.874 62.0289 179.942 61.7449C180.01 61.4568 180.044 61.1508 180.044 60.8267ZM183.687 58.7564V66.4976H182.571V57.5082H183.591L183.687 58.7564ZM188.062 60.7007V60.8267C188.062 61.2988 188.006 61.7369 187.894 62.1409C187.782 62.541 187.618 62.889 187.401 63.1851C187.189 63.4811 186.927 63.7112 186.615 63.8752C186.303 64.0392 185.945 64.1212 185.541 64.1212C185.129 64.1212 184.765 64.0532 184.449 63.9172C184.133 63.7812 183.865 63.5832 183.645 63.3231C183.425 63.0631 183.249 62.751 183.117 62.387C182.989 62.0229 182.901 61.6128 182.853 61.1568V60.4846C182.901 60.0046 182.991 59.5745 183.123 59.1944C183.255 58.8144 183.429 58.4903 183.645 58.2223C183.865 57.9502 184.131 57.7442 184.443 57.6042C184.755 57.4602 185.115 57.3881 185.523 57.3881C185.931 57.3881 186.293 57.4682 186.609 57.6282C186.925 57.7842 187.191 58.0082 187.407 58.3003C187.624 58.5923 187.786 58.9424 187.894 59.3505C188.006 59.7545 188.062 60.2046 188.062 60.7007ZM186.945 60.8267V60.7007C186.945 60.3766 186.911 60.0726 186.843 59.7885C186.775 59.5005 186.669 59.2484 186.525 59.0324C186.385 58.8124 186.205 58.6403 185.985 58.5163C185.765 58.3883 185.503 58.3243 185.199 58.3243C184.919 58.3243 184.675 58.3723 184.467 58.4683C184.263 58.5643 184.089 58.6944 183.945 58.8584C183.801 59.0184 183.683 59.2024 183.591 59.4105C183.503 59.6145 183.437 59.8265 183.393 60.0466V61.6008C183.473 61.8809 183.585 62.1449 183.729 62.393C183.873 62.637 184.065 62.835 184.305 62.9871C184.545 63.1351 184.847 63.2091 185.211 63.2091C185.511 63.2091 185.769 63.1471 185.985 63.0231C186.205 62.895 186.385 62.721 186.525 62.501C186.669 62.2809 186.775 62.0289 186.843 61.7449C186.911 61.4568 186.945 61.1508 186.945 60.8267Z" fill="black"/>
<rect x="37" y="79.0012" width="289" height="2" fill="#2979FF"/>
<path d="M57.7828 58.8839H57.4231L57.4217 57.2426C57.4202 55.4546 55.8317 53.9999 53.8791 54.0012C51.9266 54.0026 50.3381 55.4572 50.3395 57.2452L50.3425 58.8866H50.2143C49.5431 58.8879 48.9985 59.3866 49 60.0012V64.8879C49 65.5026 49.546 66.0012 50.2172 66.0012L57.7857 65.9972C58.4569 65.9972 59.0015 65.4986 59 64.8839V59.9959C59 59.3812 58.454 58.8839 57.7828 58.8839ZM51.6471 58.8866L51.6441 57.2452C51.6441 56.1159 52.6459 55.1972 53.8791 55.1959C55.1124 55.1959 56.1156 56.1146 56.1156 57.2426L56.1185 58.8839L51.6471 58.8866Z" fill="black"/>
<path d="M118.487 192.6C118.487 193.923 118.258 195.086 117.801 196.088C117.343 197.084 116.688 197.851 115.834 198.389C114.987 198.921 114.009 199.187 112.902 199.187C111.808 199.187 110.83 198.921 109.971 198.389C109.117 197.851 108.455 197.087 107.985 196.097C107.521 195.108 107.286 193.967 107.28 192.674V191.913C107.28 190.596 107.512 189.433 107.976 188.425C108.446 187.417 109.105 186.647 109.952 186.115C110.806 185.577 111.783 185.308 112.884 185.308C113.985 185.308 114.959 185.574 115.806 186.106C116.66 186.631 117.318 187.392 117.782 188.388C118.246 189.378 118.481 190.531 118.487 191.848V192.6ZM116.14 191.895C116.14 190.398 115.856 189.251 115.287 188.453C114.724 187.655 113.923 187.256 112.884 187.256C111.869 187.256 111.075 187.655 110.5 188.453C109.931 189.245 109.64 190.367 109.627 191.821V192.6C109.627 194.084 109.915 195.232 110.49 196.042C111.072 196.852 111.876 197.257 112.902 197.257C113.941 197.257 114.739 196.861 115.296 196.07C115.859 195.278 116.14 194.121 116.14 192.6V191.895ZM129.397 194.084C129.397 195.637 129.045 196.877 128.34 197.804C127.635 198.726 126.688 199.187 125.501 199.187C124.4 199.187 123.519 198.825 122.857 198.101V202.861H120.603V188.963H122.681L122.773 189.984C123.435 189.18 124.335 188.778 125.473 188.778C126.698 188.778 127.656 189.235 128.349 190.151C129.048 191.06 129.397 192.325 129.397 193.945V194.084ZM127.152 193.889C127.152 192.887 126.951 192.093 126.549 191.505C126.153 190.918 125.584 190.624 124.842 190.624C123.921 190.624 123.259 191.004 122.857 191.765V196.218C123.265 196.997 123.933 197.387 124.861 197.387C125.578 197.387 126.138 197.099 126.54 196.524C126.948 195.943 127.152 195.065 127.152 193.889ZM135.734 199.187C134.305 199.187 133.146 198.738 132.255 197.842C131.37 196.939 130.928 195.739 130.928 194.242V193.964C130.928 192.962 131.12 192.068 131.503 191.282C131.893 190.491 132.437 189.875 133.136 189.436C133.835 188.997 134.614 188.778 135.474 188.778C136.841 188.778 137.896 189.214 138.638 190.086C139.386 190.958 139.76 192.192 139.76 193.787V194.697H133.201C133.269 195.525 133.544 196.181 134.027 196.663C134.515 197.146 135.128 197.387 135.864 197.387C136.897 197.387 137.738 196.969 138.387 196.135L139.603 197.294C139.201 197.894 138.662 198.361 137.988 198.695C137.32 199.023 136.569 199.187 135.734 199.187ZM135.465 190.587C134.846 190.587 134.345 190.803 133.962 191.236C133.585 191.669 133.343 192.272 133.238 193.045H137.534V192.878C137.484 192.124 137.283 191.555 136.931 191.171C136.578 190.781 136.09 190.587 135.465 190.587ZM143.61 188.963L143.675 190.123C144.417 189.226 145.392 188.778 146.598 188.778C148.688 188.778 149.752 189.974 149.789 192.368V199.001H147.535V192.498C147.535 191.861 147.396 191.391 147.117 191.088C146.845 190.778 146.397 190.624 145.772 190.624C144.863 190.624 144.186 191.035 143.74 191.858V199.001H141.486V188.963H143.61ZM159.224 199.001H156.97V188.963H159.224V199.001ZM156.831 186.356C156.831 186.01 156.939 185.722 157.155 185.493C157.378 185.265 157.693 185.15 158.102 185.15C158.51 185.15 158.825 185.265 159.048 185.493C159.271 185.722 159.382 186.01 159.382 186.356C159.382 186.696 159.271 186.981 159.048 187.21C158.825 187.432 158.51 187.544 158.102 187.544C157.693 187.544 157.378 187.432 157.155 187.21C156.939 186.981 156.831 186.696 156.831 186.356ZM163.779 188.963L163.844 190.123C164.586 189.226 165.561 188.778 166.767 188.778C168.857 188.778 169.921 189.974 169.958 192.368V199.001H167.704V192.498C167.704 191.861 167.564 191.391 167.286 191.088C167.014 190.778 166.566 190.624 165.941 190.624C165.032 190.624 164.354 191.035 163.909 191.858V199.001H161.655V188.963H163.779ZM180.256 185.493L184.152 195.847L188.04 185.493H191.073V199.001H188.735V194.548L188.967 188.592L184.978 199.001H183.299L179.319 188.601L179.551 194.548V199.001H177.213V185.493H180.256ZM193.216 193.889C193.216 192.906 193.411 192.022 193.801 191.236C194.19 190.444 194.738 189.838 195.443 189.418C196.148 188.991 196.958 188.778 197.874 188.778C199.228 188.778 200.326 189.214 201.167 190.086C202.014 190.958 202.472 192.114 202.54 193.555L202.549 194.084C202.549 195.074 202.358 195.958 201.974 196.738C201.597 197.517 201.053 198.12 200.341 198.547C199.636 198.973 198.82 199.187 197.892 199.187C196.476 199.187 195.341 198.717 194.487 197.777C193.64 196.83 193.216 195.572 193.216 194.001V193.889ZM195.471 194.084C195.471 195.117 195.684 195.927 196.111 196.515C196.538 197.096 197.131 197.387 197.892 197.387C198.653 197.387 199.243 197.09 199.664 196.496C200.091 195.903 200.304 195.034 200.304 193.889C200.304 192.875 200.085 192.071 199.646 191.477C199.213 190.884 198.622 190.587 197.874 190.587C197.138 190.587 196.553 190.88 196.12 191.468C195.687 192.049 195.471 192.921 195.471 194.084ZM213.265 194.084C213.265 195.643 212.915 196.883 212.216 197.804C211.524 198.726 210.568 199.187 209.35 199.187C208.174 199.187 207.259 198.763 206.604 197.916L206.492 199.001H204.451V184.751H206.706V189.928C207.355 189.161 208.23 188.778 209.331 188.778C210.556 188.778 211.517 189.232 212.216 190.141C212.915 191.051 213.265 192.322 213.265 193.954V194.084ZM211.01 193.889C211.01 192.801 210.819 191.984 210.435 191.44C210.052 190.896 209.495 190.624 208.765 190.624C207.788 190.624 207.101 191.051 206.706 191.904V196.042C207.108 196.914 207.8 197.35 208.784 197.35C209.489 197.35 210.033 197.087 210.417 196.561C210.8 196.036 210.998 195.241 211.01 194.177V193.889ZM217.56 199.001H215.306V188.963H217.56V199.001ZM215.167 186.356C215.167 186.01 215.275 185.722 215.491 185.493C215.714 185.265 216.029 185.15 216.438 185.15C216.846 185.15 217.161 185.265 217.384 185.493C217.606 185.722 217.718 186.01 217.718 186.356C217.718 186.696 217.606 186.981 217.384 187.21C217.161 187.432 216.846 187.544 216.438 187.544C216.029 187.544 215.714 187.432 215.491 187.21C215.275 186.981 215.167 186.696 215.167 186.356ZM222.421 199.001H220.167V184.751H222.421V199.001ZM229.305 199.187C227.876 199.187 226.717 198.738 225.826 197.842C224.942 196.939 224.5 195.739 224.5 194.242V193.964C224.5 192.962 224.691 192.068 225.075 191.282C225.464 190.491 226.009 189.875 226.708 189.436C227.406 188.997 228.186 188.778 229.045 188.778C230.412 188.778 231.467 189.214 232.209 190.086C232.957 190.958 233.332 192.192 233.332 193.787V194.697H226.772C226.84 195.525 227.116 196.181 227.598 196.663C228.087 197.146 228.699 197.387 229.435 197.387C230.468 197.387 231.309 196.969 231.958 196.135L233.174 197.294C232.772 197.894 232.234 198.361 231.56 198.695C230.892 199.023 230.14 199.187 229.305 199.187ZM229.036 190.587C228.418 190.587 227.917 190.803 227.533 191.236C227.156 191.669 226.915 192.272 226.81 193.045H231.105V192.878C231.056 192.124 230.854 191.555 230.502 191.171C230.149 190.781 229.661 190.587 229.036 190.587Z" fill="#5A5B6A"/>
<path d="M71.3516 221.931C70.0651 221.561 69.1276 221.108 68.5391 220.572C67.9557 220.03 67.6641 219.363 67.6641 218.572C67.6641 217.676 68.0208 216.936 68.7344 216.353C69.4531 215.764 70.3854 215.47 71.5312 215.47C72.3125 215.47 73.0078 215.621 73.6172 215.923C74.2318 216.225 74.7057 216.642 75.0391 217.173C75.3776 217.704 75.5469 218.285 75.5469 218.915H74.0391C74.0391 218.228 73.8203 217.689 73.3828 217.298C72.9453 216.902 72.3281 216.704 71.5312 216.704C70.7917 216.704 70.2135 216.868 69.7969 217.197C69.3854 217.519 69.1797 217.97 69.1797 218.548C69.1797 219.012 69.375 219.405 69.7656 219.728C70.1615 220.045 70.8307 220.337 71.7734 220.603C72.7214 220.868 73.4609 221.163 73.9922 221.486C74.5286 221.803 74.9245 222.176 75.1797 222.603C75.4401 223.03 75.5703 223.532 75.5703 224.111C75.5703 225.032 75.2109 225.772 74.4922 226.329C73.7734 226.881 72.8125 227.157 71.6094 227.157C70.8281 227.157 70.099 227.009 69.4219 226.712C68.7448 226.41 68.2214 225.999 67.8516 225.478C67.487 224.957 67.3047 224.366 67.3047 223.704H68.8125C68.8125 224.392 69.0651 224.936 69.5703 225.337C70.0807 225.733 70.7604 225.931 71.6094 225.931C72.401 225.931 73.0078 225.769 73.4297 225.447C73.8516 225.124 74.0625 224.684 74.0625 224.126C74.0625 223.569 73.8672 223.139 73.4766 222.837C73.0859 222.53 72.3776 222.228 71.3516 221.931ZM80.6641 225.978C81.1797 225.978 81.6302 225.822 82.0156 225.509C82.401 225.197 82.6146 224.806 82.6562 224.337H84.0234C83.9974 224.822 83.8307 225.282 83.5234 225.72C83.2161 226.157 82.8047 226.506 82.2891 226.767C81.7786 227.027 81.237 227.157 80.6641 227.157C79.513 227.157 78.5964 226.775 77.9141 226.009C77.237 225.238 76.8984 224.186 76.8984 222.853V222.611C76.8984 221.788 77.0495 221.056 77.3516 220.415C77.6536 219.775 78.0859 219.277 78.6484 218.923C79.2161 218.569 79.8854 218.392 80.6562 218.392C81.6042 218.392 82.3906 218.676 83.0156 219.243C83.6458 219.811 83.9818 220.548 84.0234 221.454H82.6562C82.6146 220.907 82.4062 220.46 82.0312 220.111C81.6615 219.756 81.2031 219.579 80.6562 219.579C79.9219 219.579 79.3516 219.845 78.9453 220.376C78.5443 220.902 78.3438 221.665 78.3438 222.665V222.939C78.3438 223.913 78.5443 224.663 78.9453 225.189C79.3464 225.715 79.9193 225.978 80.6641 225.978ZM90.8672 227.001C90.7839 226.835 90.7161 226.538 90.6641 226.111C89.9922 226.809 89.1901 227.157 88.2578 227.157C87.4245 227.157 86.7396 226.923 86.2031 226.454C85.6719 225.98 85.4062 225.381 85.4062 224.657C85.4062 223.777 85.7396 223.095 86.4062 222.611C87.0781 222.121 88.0208 221.876 89.2344 221.876H90.6406V221.212C90.6406 220.707 90.4896 220.306 90.1875 220.009C89.8854 219.707 89.4401 219.556 88.8516 219.556C88.3359 219.556 87.9036 219.686 87.5547 219.947C87.2057 220.207 87.0312 220.522 87.0312 220.892H85.5781C85.5781 220.47 85.7266 220.064 86.0234 219.673C86.3255 219.277 86.7318 218.965 87.2422 218.736C87.7578 218.506 88.3229 218.392 88.9375 218.392C89.9115 218.392 90.6745 218.637 91.2266 219.126C91.7786 219.611 92.0651 220.28 92.0859 221.134V225.025C92.0859 225.801 92.1849 226.418 92.3828 226.876V227.001H90.8672ZM88.4688 225.9C88.9219 225.9 89.3516 225.782 89.7578 225.548C90.1641 225.314 90.4583 225.009 90.6406 224.634V222.9H89.5078C87.737 222.9 86.8516 223.418 86.8516 224.454C86.8516 224.907 87.0026 225.262 87.3047 225.517C87.6068 225.772 87.9948 225.9 88.4688 225.9ZM95.7188 218.548L95.7656 219.611C96.4115 218.798 97.2552 218.392 98.2969 218.392C100.083 218.392 100.984 219.4 101 221.415V227.001H99.5547V221.407C99.5495 220.798 99.4089 220.348 99.1328 220.056C98.862 219.764 98.4375 219.618 97.8594 219.618C97.3906 219.618 96.9792 219.743 96.625 219.993C96.2708 220.243 95.9948 220.572 95.7969 220.978V227.001H94.3516V218.548H95.7188ZM114.633 225.009L116.258 218.548H117.703L115.242 227.001H114.07L112.016 220.595L110.016 227.001H108.844L106.391 218.548H107.828L109.492 224.876L111.461 218.548H112.625L114.633 225.009ZM120.75 227.001H119.305V218.548H120.75V227.001ZM119.188 216.306C119.188 216.072 119.258 215.874 119.398 215.712C119.544 215.551 119.758 215.47 120.039 215.47C120.32 215.47 120.534 215.551 120.68 215.712C120.826 215.874 120.898 216.072 120.898 216.306C120.898 216.54 120.826 216.736 120.68 216.892C120.534 217.048 120.32 217.126 120.039 217.126C119.758 217.126 119.544 217.048 119.398 216.892C119.258 216.736 119.188 216.54 119.188 216.306ZM125.031 216.501V218.548H126.609V219.665H125.031V224.907C125.031 225.246 125.102 225.501 125.242 225.673C125.383 225.84 125.622 225.923 125.961 225.923C126.128 225.923 126.357 225.892 126.648 225.829V227.001C126.268 227.105 125.898 227.157 125.539 227.157C124.893 227.157 124.406 226.962 124.078 226.572C123.75 226.181 123.586 225.626 123.586 224.907V219.665H122.047V218.548H123.586V216.501H125.031ZM129.75 219.572C130.391 218.785 131.224 218.392 132.25 218.392C134.036 218.392 134.938 219.4 134.953 221.415V227.001H133.508V221.407C133.503 220.798 133.362 220.348 133.086 220.056C132.815 219.764 132.391 219.618 131.812 219.618C131.344 219.618 130.932 219.743 130.578 219.993C130.224 220.243 129.948 220.572 129.75 220.978V227.001H128.305V215.001H129.75V219.572ZM143.852 224.884L145.82 218.548H147.367L143.969 228.306C143.443 229.712 142.607 230.415 141.461 230.415L141.188 230.392L140.648 230.29V229.118L141.039 229.15C141.529 229.15 141.909 229.051 142.18 228.853C142.456 228.655 142.682 228.293 142.859 227.767L143.18 226.907L140.164 218.548H141.742L143.852 224.884ZM148.156 222.697C148.156 221.868 148.318 221.124 148.641 220.462C148.969 219.801 149.422 219.29 150 218.931C150.583 218.572 151.247 218.392 151.992 218.392C153.143 218.392 154.073 218.79 154.781 219.587C155.495 220.384 155.852 221.444 155.852 222.767V222.868C155.852 223.691 155.693 224.431 155.375 225.087C155.062 225.738 154.612 226.246 154.023 226.611C153.44 226.975 152.768 227.157 152.008 227.157C150.862 227.157 149.932 226.759 149.219 225.962C148.51 225.165 148.156 224.111 148.156 222.798V222.697ZM149.609 222.868C149.609 223.806 149.826 224.559 150.258 225.126C150.695 225.694 151.279 225.978 152.008 225.978C152.742 225.978 153.326 225.691 153.758 225.118C154.19 224.54 154.406 223.733 154.406 222.697C154.406 221.769 154.185 221.019 153.742 220.447C153.305 219.868 152.721 219.579 151.992 219.579C151.279 219.579 150.703 219.863 150.266 220.431C149.828 220.999 149.609 221.811 149.609 222.868ZM162.883 226.165C162.32 226.827 161.495 227.157 160.406 227.157C159.505 227.157 158.818 226.897 158.344 226.376C157.875 225.85 157.638 225.074 157.633 224.048V218.548H159.078V224.009C159.078 225.29 159.599 225.931 160.641 225.931C161.745 225.931 162.479 225.519 162.844 224.697V218.548H164.289V227.001H162.914L162.883 226.165ZM170.578 219.845C170.359 219.809 170.122 219.79 169.867 219.79C168.919 219.79 168.276 220.194 167.938 221.001V227.001H166.492V218.548H167.898L167.922 219.525C168.396 218.769 169.068 218.392 169.938 218.392C170.219 218.392 170.432 218.428 170.578 218.501V219.845ZM183.023 222.868C183.023 224.155 182.729 225.191 182.141 225.978C181.552 226.764 180.755 227.157 179.75 227.157C178.724 227.157 177.917 226.832 177.328 226.181V230.251H175.883V218.548H177.203L177.273 219.486C177.862 218.756 178.68 218.392 179.727 218.392C180.742 218.392 181.544 218.775 182.133 219.54C182.727 220.306 183.023 221.371 183.023 222.736V222.868ZM181.578 222.704C181.578 221.751 181.375 220.999 180.969 220.447C180.562 219.894 180.005 219.618 179.297 219.618C178.422 219.618 177.766 220.006 177.328 220.782V224.822C177.76 225.592 178.422 225.978 179.312 225.978C180.005 225.978 180.555 225.704 180.961 225.157C181.372 224.605 181.578 223.788 181.578 222.704ZM186.312 219.572C186.953 218.785 187.786 218.392 188.812 218.392C190.599 218.392 191.5 219.4 191.516 221.415V227.001H190.07V221.407C190.065 220.798 189.924 220.348 189.648 220.056C189.378 219.764 188.953 219.618 188.375 219.618C187.906 219.618 187.495 219.743 187.141 219.993C186.786 220.243 186.51 220.572 186.312 220.978V227.001H184.867V215.001H186.312V219.572ZM193.297 222.697C193.297 221.868 193.458 221.124 193.781 220.462C194.109 219.801 194.562 219.29 195.141 218.931C195.724 218.572 196.388 218.392 197.133 218.392C198.284 218.392 199.214 218.79 199.922 219.587C200.635 220.384 200.992 221.444 200.992 222.767V222.868C200.992 223.691 200.833 224.431 200.516 225.087C200.203 225.738 199.753 226.246 199.164 226.611C198.581 226.975 197.909 227.157 197.148 227.157C196.003 227.157 195.073 226.759 194.359 225.962C193.651 225.165 193.297 224.111 193.297 222.798V222.697ZM194.75 222.868C194.75 223.806 194.966 224.559 195.398 225.126C195.836 225.694 196.419 225.978 197.148 225.978C197.883 225.978 198.466 225.691 198.898 225.118C199.331 224.54 199.547 223.733 199.547 222.697C199.547 221.769 199.326 221.019 198.883 220.447C198.445 219.868 197.862 219.579 197.133 219.579C196.419 219.579 195.844 219.863 195.406 220.431C194.969 220.999 194.75 221.811 194.75 222.868ZM204.172 218.548L204.219 219.611C204.865 218.798 205.708 218.392 206.75 218.392C208.536 218.392 209.438 219.4 209.453 221.415V227.001H208.008V221.407C208.003 220.798 207.862 220.348 207.586 220.056C207.315 219.764 206.891 219.618 206.312 219.618C205.844 219.618 205.432 219.743 205.078 219.993C204.724 220.243 204.448 220.572 204.25 220.978V227.001H202.805V218.548H204.172ZM215.141 227.157C213.995 227.157 213.062 226.782 212.344 226.032C211.625 225.277 211.266 224.269 211.266 223.009V222.743C211.266 221.905 211.424 221.157 211.742 220.501C212.065 219.84 212.513 219.324 213.086 218.954C213.664 218.579 214.289 218.392 214.961 218.392C216.06 218.392 216.914 218.754 217.523 219.478C218.133 220.202 218.438 221.238 218.438 222.587V223.189H212.711C212.732 224.022 212.974 224.697 213.438 225.212C213.906 225.723 214.5 225.978 215.219 225.978C215.729 225.978 216.161 225.874 216.516 225.665C216.87 225.457 217.18 225.181 217.445 224.837L218.328 225.525C217.62 226.613 216.557 227.157 215.141 227.157ZM214.961 219.579C214.378 219.579 213.888 219.793 213.492 220.22C213.096 220.642 212.852 221.236 212.758 222.001H216.992V221.892C216.951 221.157 216.753 220.59 216.398 220.189C216.044 219.782 215.565 219.579 214.961 219.579ZM219.594 218.829L218.773 218.267C219.258 217.59 219.508 216.876 219.523 216.126V215.001H220.953V216.017C220.948 216.538 220.818 217.059 220.562 217.579C220.312 218.095 219.99 218.512 219.594 218.829ZM226.742 224.759C226.742 224.368 226.594 224.066 226.297 223.853C226.005 223.634 225.492 223.447 224.758 223.29C224.029 223.134 223.448 222.947 223.016 222.728C222.589 222.509 222.271 222.249 222.062 221.947C221.859 221.644 221.758 221.285 221.758 220.868C221.758 220.176 222.049 219.59 222.633 219.111C223.221 218.631 223.971 218.392 224.883 218.392C225.841 218.392 226.617 218.639 227.211 219.134C227.81 219.629 228.109 220.262 228.109 221.032H226.656C226.656 220.637 226.487 220.295 226.148 220.009C225.815 219.723 225.393 219.579 224.883 219.579C224.357 219.579 223.945 219.694 223.648 219.923C223.352 220.152 223.203 220.452 223.203 220.822C223.203 221.17 223.341 221.434 223.617 221.611C223.893 221.788 224.391 221.957 225.109 222.118C225.833 222.28 226.419 222.473 226.867 222.697C227.315 222.92 227.646 223.191 227.859 223.509C228.078 223.822 228.188 224.204 228.188 224.657C228.188 225.413 227.885 226.019 227.281 226.478C226.677 226.931 225.893 227.157 224.93 227.157C224.253 227.157 223.654 227.038 223.133 226.798C222.612 226.559 222.203 226.225 221.906 225.798C221.615 225.366 221.469 224.9 221.469 224.4H222.914C222.94 224.884 223.133 225.269 223.492 225.556C223.857 225.837 224.336 225.978 224.93 225.978C225.477 225.978 225.914 225.868 226.242 225.65C226.576 225.426 226.742 225.129 226.742 224.759ZM237.43 225.978C237.945 225.978 238.396 225.822 238.781 225.509C239.167 225.197 239.38 224.806 239.422 224.337H240.789C240.763 224.822 240.596 225.282 240.289 225.72C239.982 226.157 239.57 226.506 239.055 226.767C238.544 227.027 238.003 227.157 237.43 227.157C236.279 227.157 235.362 226.775 234.68 226.009C234.003 225.238 233.664 224.186 233.664 222.853V222.611C233.664 221.788 233.815 221.056 234.117 220.415C234.419 219.775 234.852 219.277 235.414 218.923C235.982 218.569 236.651 218.392 237.422 218.392C238.37 218.392 239.156 218.676 239.781 219.243C240.411 219.811 240.747 220.548 240.789 221.454H239.422C239.38 220.907 239.172 220.46 238.797 220.111C238.427 219.756 237.969 219.579 237.422 219.579C236.688 219.579 236.117 219.845 235.711 220.376C235.31 220.902 235.109 221.665 235.109 222.665V222.939C235.109 223.913 235.31 224.663 235.711 225.189C236.112 225.715 236.685 225.978 237.43 225.978ZM247.633 227.001C247.549 226.835 247.482 226.538 247.43 226.111C246.758 226.809 245.956 227.157 245.023 227.157C244.19 227.157 243.505 226.923 242.969 226.454C242.438 225.98 242.172 225.381 242.172 224.657C242.172 223.777 242.505 223.095 243.172 222.611C243.844 222.121 244.786 221.876 246 221.876H247.406V221.212C247.406 220.707 247.255 220.306 246.953 220.009C246.651 219.707 246.206 219.556 245.617 219.556C245.102 219.556 244.669 219.686 244.32 219.947C243.971 220.207 243.797 220.522 243.797 220.892H242.344C242.344 220.47 242.492 220.064 242.789 219.673C243.091 219.277 243.497 218.965 244.008 218.736C244.523 218.506 245.089 218.392 245.703 218.392C246.677 218.392 247.44 218.637 247.992 219.126C248.544 219.611 248.831 220.28 248.852 221.134V225.025C248.852 225.801 248.951 226.418 249.148 226.876V227.001H247.633ZM245.234 225.9C245.688 225.9 246.117 225.782 246.523 225.548C246.93 225.314 247.224 225.009 247.406 224.634V222.9H246.273C244.503 222.9 243.617 223.418 243.617 224.454C243.617 224.907 243.768 225.262 244.07 225.517C244.372 225.772 244.76 225.9 245.234 225.9ZM252.477 218.548L252.516 219.486C253.135 218.756 253.971 218.392 255.023 218.392C256.206 218.392 257.01 218.845 257.438 219.751C257.719 219.345 258.083 219.017 258.531 218.767C258.984 218.517 259.518 218.392 260.133 218.392C261.987 218.392 262.93 219.374 262.961 221.337V227.001H261.516V221.423C261.516 220.819 261.378 220.368 261.102 220.072C260.826 219.769 260.362 219.618 259.711 219.618C259.174 219.618 258.729 219.78 258.375 220.103C258.021 220.42 257.815 220.85 257.758 221.392V227.001H256.305V221.462C256.305 220.233 255.703 219.618 254.5 219.618C253.552 219.618 252.904 220.022 252.555 220.829V227.001H251.109V218.548H252.477ZM268.656 227.157C267.51 227.157 266.578 226.782 265.859 226.032C265.141 225.277 264.781 224.269 264.781 223.009V222.743C264.781 221.905 264.94 221.157 265.258 220.501C265.581 219.84 266.029 219.324 266.602 218.954C267.18 218.579 267.805 218.392 268.477 218.392C269.576 218.392 270.43 218.754 271.039 219.478C271.648 220.202 271.953 221.238 271.953 222.587V223.189H266.227C266.247 224.022 266.49 224.697 266.953 225.212C267.422 225.723 268.016 225.978 268.734 225.978C269.245 225.978 269.677 225.874 270.031 225.665C270.385 225.457 270.695 225.181 270.961 224.837L271.844 225.525C271.135 226.613 270.073 227.157 268.656 227.157ZM268.477 219.579C267.893 219.579 267.404 219.793 267.008 220.22C266.612 220.642 266.367 221.236 266.273 222.001H270.508V221.892C270.466 221.157 270.268 220.59 269.914 220.189C269.56 219.782 269.081 219.579 268.477 219.579ZM277.719 219.845C277.5 219.809 277.263 219.79 277.008 219.79C276.06 219.79 275.417 220.194 275.078 221.001V227.001H273.633V218.548H275.039L275.062 219.525C275.536 218.769 276.208 218.392 277.078 218.392C277.359 218.392 277.573 218.428 277.719 218.501V219.845ZM283.961 227.001C283.878 226.835 283.81 226.538 283.758 226.111C283.086 226.809 282.284 227.157 281.352 227.157C280.518 227.157 279.833 226.923 279.297 226.454C278.766 225.98 278.5 225.381 278.5 224.657C278.5 223.777 278.833 223.095 279.5 222.611C280.172 222.121 281.115 221.876 282.328 221.876H283.734V221.212C283.734 220.707 283.583 220.306 283.281 220.009C282.979 219.707 282.534 219.556 281.945 219.556C281.43 219.556 280.997 219.686 280.648 219.947C280.299 220.207 280.125 220.522 280.125 220.892H278.672C278.672 220.47 278.82 220.064 279.117 219.673C279.419 219.277 279.826 218.965 280.336 218.736C280.852 218.506 281.417 218.392 282.031 218.392C283.005 218.392 283.768 218.637 284.32 219.126C284.872 219.611 285.159 220.28 285.18 221.134V225.025C285.18 225.801 285.279 226.418 285.477 226.876V227.001H283.961ZM281.562 225.9C282.016 225.9 282.445 225.782 282.852 225.548C283.258 225.314 283.552 225.009 283.734 224.634V222.9H282.602C280.831 222.9 279.945 223.418 279.945 224.454C279.945 224.907 280.096 225.262 280.398 225.517C280.701 225.772 281.089 225.9 281.562 225.9ZM97.5625 243.697C97.5625 242.868 97.724 242.124 98.0469 241.462C98.375 240.801 98.8281 240.29 99.4062 239.931C99.9896 239.572 100.654 239.392 101.398 239.392C102.549 239.392 103.479 239.79 104.188 240.587C104.901 241.384 105.258 242.444 105.258 243.767V243.868C105.258 244.691 105.099 245.431 104.781 246.087C104.469 246.738 104.018 247.246 103.43 247.611C102.846 247.975 102.174 248.157 101.414 248.157C100.268 248.157 99.3385 247.759 98.625 246.962C97.9167 246.165 97.5625 245.111 97.5625 243.798V243.697ZM99.0156 243.868C99.0156 244.806 99.2318 245.559 99.6641 246.126C100.102 246.694 100.685 246.978 101.414 246.978C102.148 246.978 102.732 246.691 103.164 246.118C103.596 245.54 103.812 244.733 103.812 243.697C103.812 242.769 103.591 242.019 103.148 241.447C102.711 240.868 102.128 240.579 101.398 240.579C100.685 240.579 100.109 240.863 99.6719 241.431C99.2344 241.999 99.0156 242.811 99.0156 243.868ZM111.156 240.845C110.938 240.809 110.701 240.79 110.445 240.79C109.497 240.79 108.854 241.194 108.516 242.001V248.001H107.07V239.548H108.477L108.5 240.525C108.974 239.769 109.646 239.392 110.516 239.392C110.797 239.392 111.01 239.428 111.156 239.501V240.845ZM125.375 242.681C125.375 243.78 125.201 244.728 124.852 245.525C124.503 246.316 124.013 246.936 123.383 247.384L125.414 248.978L124.391 249.923L121.992 248.017C121.617 248.111 121.221 248.157 120.805 248.157C119.909 248.157 119.115 247.939 118.422 247.501C117.729 247.059 117.19 246.431 116.805 245.618C116.424 244.801 116.229 243.855 116.219 242.782V241.962C116.219 240.868 116.409 239.902 116.789 239.064C117.169 238.225 117.706 237.585 118.398 237.142C119.096 236.694 119.893 236.47 120.789 236.47C121.706 236.47 122.51 236.691 123.203 237.134C123.901 237.577 124.438 238.215 124.812 239.048C125.188 239.876 125.375 240.845 125.375 241.954V242.681ZM123.875 241.947C123.875 240.608 123.607 239.577 123.07 238.853C122.539 238.124 121.779 237.759 120.789 237.759C119.846 237.759 119.102 238.121 118.555 238.845C118.013 239.564 117.734 240.564 117.719 241.845V242.681C117.719 243.983 117.99 245.009 118.531 245.759C119.078 246.509 119.836 246.884 120.805 246.884C121.773 246.884 122.523 246.532 123.055 245.829C123.586 245.121 123.859 244.108 123.875 242.79V241.947ZM131.859 243.4H129.188V248.001H127.68V236.626H131.445C132.727 236.626 133.711 236.918 134.398 237.501C135.091 238.085 135.438 238.934 135.438 240.048C135.438 240.756 135.245 241.374 134.859 241.9C134.479 242.426 133.948 242.819 133.266 243.079L135.938 247.907V248.001H134.328L131.859 243.4ZM129.188 242.173H131.492C132.237 242.173 132.828 241.98 133.266 241.595C133.708 241.21 133.93 240.694 133.93 240.048C133.93 239.345 133.719 238.806 133.297 238.431C132.88 238.056 132.276 237.866 131.484 237.861H129.188V242.173ZM144.68 246.978C145.195 246.978 145.646 246.822 146.031 246.509C146.417 246.197 146.63 245.806 146.672 245.337H148.039C148.013 245.822 147.846 246.282 147.539 246.72C147.232 247.157 146.82 247.506 146.305 247.767C145.794 248.027 145.253 248.157 144.68 248.157C143.529 248.157 142.612 247.775 141.93 247.009C141.253 246.238 140.914 245.186 140.914 243.853V243.611C140.914 242.788 141.065 242.056 141.367 241.415C141.669 240.775 142.102 240.277 142.664 239.923C143.232 239.569 143.901 239.392 144.672 239.392C145.62 239.392 146.406 239.676 147.031 240.243C147.661 240.811 147.997 241.548 148.039 242.454H146.672C146.63 241.907 146.422 241.46 146.047 241.111C145.677 240.756 145.219 240.579 144.672 240.579C143.938 240.579 143.367 240.845 142.961 241.376C142.56 241.902 142.359 242.665 142.359 243.665V243.939C142.359 244.913 142.56 245.663 142.961 246.189C143.362 246.715 143.935 246.978 144.68 246.978ZM149.281 243.697C149.281 242.868 149.443 242.124 149.766 241.462C150.094 240.801 150.547 240.29 151.125 239.931C151.708 239.572 152.372 239.392 153.117 239.392C154.268 239.392 155.198 239.79 155.906 240.587C156.62 241.384 156.977 242.444 156.977 243.767V243.868C156.977 244.691 156.818 245.431 156.5 246.087C156.188 246.738 155.737 247.246 155.148 247.611C154.565 247.975 153.893 248.157 153.133 248.157C151.987 248.157 151.057 247.759 150.344 246.962C149.635 246.165 149.281 245.111 149.281 243.798V243.697ZM150.734 243.868C150.734 244.806 150.951 245.559 151.383 246.126C151.82 246.694 152.404 246.978 153.133 246.978C153.867 246.978 154.451 246.691 154.883 246.118C155.315 245.54 155.531 244.733 155.531 243.697C155.531 242.769 155.31 242.019 154.867 241.447C154.43 240.868 153.846 240.579 153.117 240.579C152.404 240.579 151.828 240.863 151.391 241.431C150.953 241.999 150.734 242.811 150.734 243.868ZM158.438 243.704C158.438 242.407 158.745 241.366 159.359 240.579C159.974 239.788 160.779 239.392 161.773 239.392C162.763 239.392 163.547 239.73 164.125 240.407V236.001H165.57V248.001H164.242L164.172 247.095C163.594 247.803 162.789 248.157 161.758 248.157C160.779 248.157 159.979 247.756 159.359 246.954C158.745 246.152 158.438 245.105 158.438 243.814V243.704ZM159.883 243.868C159.883 244.827 160.081 245.577 160.477 246.118C160.872 246.66 161.419 246.931 162.117 246.931C163.034 246.931 163.703 246.519 164.125 245.697V241.814C163.693 241.017 163.029 240.618 162.133 240.618C161.424 240.618 160.872 240.892 160.477 241.439C160.081 241.986 159.883 242.795 159.883 243.868ZM171.328 248.157C170.182 248.157 169.25 247.782 168.531 247.032C167.812 246.277 167.453 245.269 167.453 244.009V243.743C167.453 242.905 167.612 242.157 167.93 241.501C168.253 240.84 168.701 240.324 169.273 239.954C169.852 239.579 170.477 239.392 171.148 239.392C172.247 239.392 173.102 239.754 173.711 240.478C174.32 241.202 174.625 242.238 174.625 243.587V244.189H168.898C168.919 245.022 169.161 245.697 169.625 246.212C170.094 246.723 170.688 246.978 171.406 246.978C171.917 246.978 172.349 246.874 172.703 246.665C173.057 246.457 173.367 246.181 173.633 245.837L174.516 246.525C173.807 247.613 172.745 248.157 171.328 248.157ZM171.148 240.579C170.565 240.579 170.076 240.793 169.68 241.22C169.284 241.642 169.039 242.236 168.945 243.001H173.18V242.892C173.138 242.157 172.94 241.59 172.586 241.189C172.232 240.782 171.753 240.579 171.148 240.579ZM185.492 248.001C185.409 247.835 185.341 247.538 185.289 247.111C184.617 247.809 183.815 248.157 182.883 248.157C182.049 248.157 181.365 247.923 180.828 247.454C180.297 246.98 180.031 246.381 180.031 245.657C180.031 244.777 180.365 244.095 181.031 243.611C181.703 243.121 182.646 242.876 183.859 242.876H185.266V242.212C185.266 241.707 185.115 241.306 184.812 241.009C184.51 240.707 184.065 240.556 183.477 240.556C182.961 240.556 182.529 240.686 182.18 240.947C181.831 241.207 181.656 241.522 181.656 241.892H180.203C180.203 241.47 180.352 241.064 180.648 240.673C180.951 240.277 181.357 239.965 181.867 239.736C182.383 239.506 182.948 239.392 183.562 239.392C184.536 239.392 185.299 239.637 185.852 240.126C186.404 240.611 186.69 241.28 186.711 242.134V246.025C186.711 246.801 186.81 247.418 187.008 247.876V248.001H185.492ZM183.094 246.9C183.547 246.9 183.977 246.782 184.383 246.548C184.789 246.314 185.083 246.009 185.266 245.634V243.9H184.133C182.362 243.9 181.477 244.418 181.477 245.454C181.477 245.907 181.628 246.262 181.93 246.517C182.232 246.772 182.62 246.9 183.094 246.9ZM196.117 243.868C196.117 245.155 195.823 246.191 195.234 246.978C194.646 247.764 193.849 248.157 192.844 248.157C191.818 248.157 191.01 247.832 190.422 247.181V251.251H188.977V239.548H190.297L190.367 240.486C190.956 239.756 191.773 239.392 192.82 239.392C193.836 239.392 194.638 239.775 195.227 240.54C195.82 241.306 196.117 242.371 196.117 243.736V243.868ZM194.672 243.704C194.672 242.751 194.469 241.999 194.062 241.447C193.656 240.894 193.099 240.618 192.391 240.618C191.516 240.618 190.859 241.006 190.422 241.782V245.822C190.854 246.592 191.516 246.978 192.406 246.978C193.099 246.978 193.648 246.704 194.055 246.157C194.466 245.605 194.672 244.788 194.672 243.704ZM205.102 243.868C205.102 245.155 204.807 246.191 204.219 246.978C203.63 247.764 202.833 248.157 201.828 248.157C200.802 248.157 199.995 247.832 199.406 247.181V251.251H197.961V239.548H199.281L199.352 240.486C199.94 239.756 200.758 239.392 201.805 239.392C202.82 239.392 203.622 239.775 204.211 240.54C204.805 241.306 205.102 242.371 205.102 243.736V243.868ZM203.656 243.704C203.656 242.751 203.453 241.999 203.047 241.447C202.641 240.894 202.083 240.618 201.375 240.618C200.5 240.618 199.844 241.006 199.406 241.782V245.822C199.839 246.592 200.5 246.978 201.391 246.978C202.083 246.978 202.633 246.704 203.039 246.157C203.451 245.605 203.656 244.788 203.656 243.704ZM212.875 237.501V239.548H214.453V240.665H212.875V245.907C212.875 246.246 212.945 246.501 213.086 246.673C213.227 246.84 213.466 246.923 213.805 246.923C213.971 246.923 214.201 246.892 214.492 246.829V248.001C214.112 248.105 213.742 248.157 213.383 248.157C212.737 248.157 212.25 247.962 211.922 247.572C211.594 247.181 211.43 246.626 211.43 245.907V240.665H209.891V239.548H211.43V237.501H212.875ZM215.609 243.697C215.609 242.868 215.771 242.124 216.094 241.462C216.422 240.801 216.875 240.29 217.453 239.931C218.036 239.572 218.701 239.392 219.445 239.392C220.596 239.392 221.526 239.79 222.234 240.587C222.948 241.384 223.305 242.444 223.305 243.767V243.868C223.305 244.691 223.146 245.431 222.828 246.087C222.516 246.738 222.065 247.246 221.477 247.611C220.893 247.975 220.221 248.157 219.461 248.157C218.315 248.157 217.385 247.759 216.672 246.962C215.964 246.165 215.609 245.111 215.609 243.798V243.697ZM217.062 243.868C217.062 244.806 217.279 245.559 217.711 246.126C218.148 246.694 218.732 246.978 219.461 246.978C220.195 246.978 220.779 246.691 221.211 246.118C221.643 245.54 221.859 244.733 221.859 243.697C221.859 242.769 221.638 242.019 221.195 241.447C220.758 240.868 220.174 240.579 219.445 240.579C218.732 240.579 218.156 240.863 217.719 241.431C217.281 241.999 217.062 242.811 217.062 243.868ZM231.875 246.04L233.969 239.548H235.445L232.414 248.001H231.312L228.25 239.548H229.727L231.875 246.04ZM238.406 248.001H236.961V239.548H238.406V248.001ZM236.844 237.306C236.844 237.072 236.914 236.874 237.055 236.712C237.201 236.551 237.414 236.47 237.695 236.47C237.977 236.47 238.19 236.551 238.336 236.712C238.482 236.874 238.555 237.072 238.555 237.306C238.555 237.54 238.482 237.736 238.336 237.892C238.19 238.048 237.977 238.126 237.695 238.126C237.414 238.126 237.201 238.048 237.055 237.892C236.914 237.736 236.844 237.54 236.844 237.306ZM244.234 248.157C243.089 248.157 242.156 247.782 241.438 247.032C240.719 246.277 240.359 245.269 240.359 244.009V243.743C240.359 242.905 240.518 242.157 240.836 241.501C241.159 240.84 241.607 240.324 242.18 239.954C242.758 239.579 243.383 239.392 244.055 239.392C245.154 239.392 246.008 239.754 246.617 240.478C247.227 241.202 247.531 242.238 247.531 243.587V244.189H241.805C241.826 245.022 242.068 245.697 242.531 246.212C243 246.723 243.594 246.978 244.312 246.978C244.823 246.978 245.255 246.874 245.609 246.665C245.964 246.457 246.273 246.181 246.539 245.837L247.422 246.525C246.714 247.613 245.651 248.157 244.234 248.157ZM244.055 240.579C243.471 240.579 242.982 240.793 242.586 241.22C242.19 241.642 241.945 242.236 241.852 243.001H246.086V242.892C246.044 242.157 245.846 241.59 245.492 241.189C245.138 240.782 244.659 240.579 244.055 240.579ZM256.695 246.009L258.32 239.548H259.766L257.305 248.001H256.133L254.078 241.595L252.078 248.001H250.906L248.453 239.548H249.891L251.555 245.876L253.523 239.548H254.688L256.695 246.009Z" fill="#787885"/>
<rect x="59" y="275.001" width="243" height="243" stroke="#2979FF" stroke-width="6"/>
<g clip-path="url(#clip1_1_1363)">
<path d="M299 278.001H62V515.001H299V278.001Z" fill="white"/>
<path d="M84.515 292.221H76.22V300.516H84.515V292.221Z" fill="black"/>
<path d="M92.8099 292.221H84.5149V300.516H92.8099V292.221Z" fill="black"/>
<path d="M101.105 292.221H92.8101V300.516H101.105V292.221Z" fill="black"/>
<path d="M109.4 292.221H101.105V300.516H109.4V292.221Z" fill="black"/>
<path d="M117.695 292.221H109.4V300.516H117.695V292.221Z" fill="black"/>
<path d="M125.99 292.221H117.695V300.516H125.99V292.221Z" fill="black"/>
<path d="M134.285 292.221H125.99V300.516H134.285V292.221Z" fill="black"/>
<path d="M167.465 292.221H159.17V300.516H167.465V292.221Z" fill="black"/>
<path d="M192.35 292.221H184.055V300.516H192.35V292.221Z" fill="black"/>
<path d="M200.645 292.221H192.35V300.516H200.645V292.221Z" fill="black"/>
<path d="M208.94 292.221H200.645V300.516H208.94V292.221Z" fill="black"/>
<path d="M217.235 292.221H208.94V300.516H217.235V292.221Z" fill="black"/>
<path d="M233.825 292.221H225.53V300.516H233.825V292.221Z" fill="black"/>
<path d="M242.12 292.221H233.825V300.516H242.12V292.221Z" fill="black"/>
<path d="M250.415 292.221H242.12V300.516H250.415V292.221Z" fill="black"/>
<path d="M258.71 292.221H250.415V300.516H258.71V292.221Z" fill="black"/>
<path d="M267.005 292.221H258.71V300.516H267.005V292.221Z" fill="black"/>
<path d="M275.3 292.221H267.005V300.516H275.3V292.221Z" fill="black"/>
<path d="M283.595 292.221H275.3V300.516H283.595V292.221Z" fill="black"/>
<path d="M84.515 300.516H76.22V308.811H84.515V300.516Z" fill="black"/>
<path d="M134.285 300.516H125.99V308.811H134.285V300.516Z" fill="black"/>
<path d="M159.17 300.516H150.875V308.811H159.17V300.516Z" fill="black"/>
<path d="M200.645 300.516H192.35V308.811H200.645V300.516Z" fill="black"/>
<path d="M208.94 300.516H200.645V308.811H208.94V300.516Z" fill="black"/>
<path d="M217.235 300.516H208.94V308.811H217.235V300.516Z" fill="black"/>
<path d="M233.825 300.516H225.53V308.811H233.825V300.516Z" fill="black"/>
<path d="M283.595 300.516H275.3V308.811H283.595V300.516Z" fill="black"/>
<path d="M84.515 308.811H76.22V317.106H84.515V308.811Z" fill="black"/>
<path d="M101.105 308.811H92.8101V317.106H101.105V308.811Z" fill="black"/>
<path d="M109.4 308.811H101.105V317.106H109.4V308.811Z" fill="black"/>
<path d="M117.695 308.811H109.4V317.106H117.695V308.811Z" fill="black"/>
<path d="M134.285 308.811H125.99V317.106H134.285V308.811Z" fill="black"/>
<path d="M150.875 308.811H142.58V317.106H150.875V308.811Z" fill="black"/>
<path d="M175.76 308.811H167.465V317.106H175.76V308.811Z" fill="black"/>
<path d="M200.645 308.811H192.35V317.106H200.645V308.811Z" fill="black"/>
<path d="M233.825 308.811H225.53V317.106H233.825V308.811Z" fill="black"/>
<path d="M250.415 308.811H242.12V317.106H250.415V308.811Z" fill="black"/>
<path d="M258.71 308.811H250.415V317.106H258.71V308.811Z" fill="black"/>
<path d="M267.005 308.811H258.71V317.106H267.005V308.811Z" fill="black"/>
<path d="M283.595 308.811H275.3V317.106H283.595V308.811Z" fill="black"/>
<path d="M84.515 317.106H76.22V325.401H84.515V317.106Z" fill="black"/>
<path d="M101.105 317.106H92.8101V325.401H101.105V317.106Z" fill="black"/>
<path d="M109.4 317.106H101.105V325.401H109.4V317.106Z" fill="black"/>
<path d="M117.695 317.106H109.4V325.401H117.695V317.106Z" fill="black"/>
<path d="M134.285 317.106H125.99V325.401H134.285V317.106Z" fill="black"/>
<path d="M159.17 317.106H150.875V325.401H159.17V317.106Z" fill="black"/>
<path d="M200.645 317.106H192.35V325.401H200.645V317.106Z" fill="black"/>
<path d="M208.94 317.106H200.645V325.401H208.94V317.106Z" fill="black"/>
<path d="M233.825 317.106H225.53V325.401H233.825V317.106Z" fill="black"/>
<path d="M250.415 317.106H242.12V325.401H250.415V317.106Z" fill="black"/>
<path d="M258.71 317.106H250.415V325.401H258.71V317.106Z" fill="black"/>
<path d="M267.005 317.106H258.71V325.401H267.005V317.106Z" fill="black"/>
<path d="M283.595 317.106H275.3V325.401H283.595V317.106Z" fill="black"/>
<path d="M84.515 325.401H76.22V333.696H84.515V325.401Z" fill="black"/>
<path d="M101.105 325.401H92.8101V333.696H101.105V325.401Z" fill="black"/>
<path d="M109.4 325.401H101.105V333.696H109.4V325.401Z" fill="black"/>
<path d="M117.695 325.401H109.4V333.696H117.695V325.401Z" fill="black"/>
<path d="M134.285 325.401H125.99V333.696H134.285V325.401Z" fill="black"/>
<path d="M159.17 325.401H150.875V333.696H159.17V325.401Z" fill="black"/>
<path d="M184.055 325.401H175.76V333.696H184.055V325.401Z" fill="black"/>
<path d="M192.35 325.401H184.055V333.696H192.35V325.401Z" fill="black"/>
<path d="M200.645 325.401H192.35V333.696H200.645V325.401Z" fill="black"/>
<path d="M208.94 325.401H200.645V333.696H208.94V325.401Z" fill="black"/>
<path d="M233.825 325.401H225.53V333.696H233.825V325.401Z" fill="black"/>
<path d="M250.415 325.401H242.12V333.696H250.415V325.401Z" fill="black"/>
<path d="M258.71 325.401H250.415V333.696H258.71V325.401Z" fill="black"/>
<path d="M267.005 325.401H258.71V333.696H267.005V325.401Z" fill="black"/>
<path d="M283.595 325.401H275.3V333.696H283.595V325.401Z" fill="black"/>
<path d="M84.515 333.696H76.22V341.991H84.515V333.696Z" fill="black"/>
<path d="M134.285 333.696H125.99V341.991H134.285V333.696Z" fill="black"/>
<path d="M167.465 333.696H159.17V341.991H167.465V333.696Z" fill="black"/>
<path d="M175.76 333.696H167.465V341.991H175.76V333.696Z" fill="black"/>
<path d="M192.35 333.696H184.055V341.991H192.35V333.696Z" fill="black"/>
<path d="M200.645 333.696H192.35V341.991H200.645V333.696Z" fill="black"/>
<path d="M208.94 333.696H200.645V341.991H208.94V333.696Z" fill="black"/>
<path d="M217.235 333.696H208.94V341.991H217.235V333.696Z" fill="black"/>
<path d="M233.825 333.696H225.53V341.991H233.825V333.696Z" fill="black"/>
<path d="M283.595 333.696H275.3V341.991H283.595V333.696Z" fill="black"/>
<path d="M84.515 341.991H76.22V350.286H84.515V341.991Z" fill="black"/>
<path d="M92.8099 341.991H84.5149V350.286H92.8099V341.991Z" fill="black"/>
<path d="M101.105 341.991H92.8101V350.286H101.105V341.991Z" fill="black"/>
<path d="M109.4 341.991H101.105V350.286H109.4V341.991Z" fill="black"/>
<path d="M117.695 341.991H109.4V350.286H117.695V341.991Z" fill="black"/>
<path d="M125.99 341.991H117.695V350.286H125.99V341.991Z" fill="black"/>
<path d="M134.285 341.991H125.99V350.286H134.285V341.991Z" fill="black"/>
<path d="M150.875 341.991H142.58V350.286H150.875V341.991Z" fill="black"/>
<path d="M167.465 341.991H159.17V350.286H167.465V341.991Z" fill="black"/>
<path d="M184.055 341.991H175.76V350.286H184.055V341.991Z" fill="black"/>
<path d="M200.645 341.991H192.35V350.286H200.645V341.991Z" fill="black"/>
<path d="M217.235 341.991H208.94V350.286H217.235V341.991Z" fill="black"/>
<path d="M233.825 341.991H225.53V350.286H233.825V341.991Z" fill="black"/>
<path d="M242.12 341.991H233.825V350.286H242.12V341.991Z" fill="black"/>
<path d="M250.415 341.991H242.12V350.286H250.415V341.991Z" fill="black"/>
<path d="M258.71 341.991H250.415V350.286H258.71V341.991Z" fill="black"/>
<path d="M267.005 341.991H258.71V350.286H267.005V341.991Z" fill="black"/>
<path d="M275.3 341.991H267.005V350.286H275.3V341.991Z" fill="black"/>
<path d="M283.595 341.991H275.3V350.286H283.595V341.991Z" fill="black"/>
<path d="M150.875 350.286H142.58V358.581H150.875V350.286Z" fill="black"/>
<path d="M175.76 350.286H167.465V358.581H175.76V350.286Z" fill="black"/>
<path d="M184.055 350.286H175.76V358.581H184.055V350.286Z" fill="black"/>
<path d="M192.35 350.286H184.055V358.581H192.35V350.286Z" fill="black"/>
<path d="M217.235 350.286H208.94V358.581H217.235V350.286Z" fill="black"/>
<path d="M84.515 358.581H76.22V366.876H84.515V358.581Z" fill="black"/>
<path d="M92.8099 358.581H84.5149V366.876H92.8099V358.581Z" fill="black"/>
<path d="M101.105 358.581H92.8101V366.876H101.105V358.581Z" fill="black"/>
<path d="M117.695 358.581H109.4V366.876H117.695V358.581Z" fill="black"/>
<path d="M125.99 358.581H117.695V366.876H125.99V358.581Z" fill="black"/>
<path d="M134.285 358.581H125.99V366.876H134.285V358.581Z" fill="black"/>
<path d="M142.58 358.581H134.285V366.876H142.58V358.581Z" fill="black"/>
<path d="M150.875 358.581H142.58V366.876H150.875V358.581Z" fill="black"/>
<path d="M184.055 358.581H175.76V366.876H184.055V358.581Z" fill="black"/>
<path d="M192.35 358.581H184.055V366.876H192.35V358.581Z" fill="black"/>
<path d="M217.235 358.581H208.94V366.876H217.235V358.581Z" fill="black"/>
<path d="M225.53 358.581H217.235V366.876H225.53V358.581Z" fill="black"/>
<path d="M233.825 358.581H225.53V366.876H233.825V358.581Z" fill="black"/>
<path d="M267.005 358.581H258.71V366.876H267.005V358.581Z" fill="black"/>
<path d="M101.105 366.876H92.8101V375.171H101.105V366.876Z" fill="black"/>
<path d="M109.4 366.876H101.105V375.171H109.4V366.876Z" fill="black"/>
<path d="M142.58 366.876H134.285V375.171H142.58V366.876Z" fill="black"/>
<path d="M159.17 366.876H150.875V375.171H159.17V366.876Z" fill="black"/>
<path d="M175.76 366.876H167.465V375.171H175.76V366.876Z" fill="black"/>
<path d="M184.055 366.876H175.76V375.171H184.055V366.876Z" fill="black"/>
<path d="M217.235 366.876H208.94V375.171H217.235V366.876Z" fill="black"/>
<path d="M233.825 366.876H225.53V375.171H233.825V366.876Z" fill="black"/>
<path d="M283.595 366.876H275.3V375.171H283.595V366.876Z" fill="black"/>
<path d="M101.105 375.171H92.8101V383.466H101.105V375.171Z" fill="black"/>
<path d="M125.99 375.171H117.695V383.466H125.99V375.171Z" fill="black"/>
<path d="M134.285 375.171H125.99V383.466H134.285V375.171Z" fill="black"/>
<path d="M142.58 375.171H134.285V383.466H142.58V375.171Z" fill="black"/>
<path d="M150.875 375.171H142.58V383.466H150.875V375.171Z" fill="black"/>
<path d="M167.465 375.171H159.17V383.466H167.465V375.171Z" fill="black"/>
<path d="M200.645 375.171H192.35V383.466H200.645V375.171Z" fill="black"/>
<path d="M233.825 375.171H225.53V383.466H233.825V375.171Z" fill="black"/>
<path d="M242.12 375.171H233.825V383.466H242.12V375.171Z" fill="black"/>
<path d="M250.415 375.171H242.12V383.466H250.415V375.171Z" fill="black"/>
<path d="M267.005 375.171H258.71V383.466H267.005V375.171Z" fill="black"/>
<path d="M275.3 375.171H267.005V383.466H275.3V375.171Z" fill="black"/>
<path d="M283.595 375.171H275.3V383.466H283.595V375.171Z" fill="black"/>
<path d="M92.8099 383.466H84.5149V391.761H92.8099V383.466Z" fill="black"/>
<path d="M109.4 383.466H101.105V391.761H109.4V383.466Z" fill="black"/>
<path d="M117.695 383.466H109.4V391.761H117.695V383.466Z" fill="black"/>
<path d="M125.99 383.466H117.695V391.761H125.99V383.466Z" fill="black"/>
<path d="M142.58 383.466H134.285V391.761H142.58V383.466Z" fill="black"/>
<path d="M159.17 383.466H150.875V391.761H159.17V383.466Z" fill="black"/>
<path d="M167.465 383.466H159.17V391.761H167.465V383.466Z" fill="black"/>
<path d="M175.76 383.466H167.465V391.761H175.76V383.466Z" fill="black"/>
<path d="M192.35 383.466H184.055V391.761H192.35V383.466Z" fill="black"/>
<path d="M200.645 383.466H192.35V391.761H200.645V383.466Z" fill="black"/>
<path d="M208.94 383.466H200.645V391.761H208.94V383.466Z" fill="black"/>
<path d="M225.53 383.466H217.235V391.761H225.53V383.466Z" fill="black"/>
<path d="M233.825 383.466H225.53V391.761H233.825V383.466Z" fill="black"/>
<path d="M242.12 383.466H233.825V391.761H242.12V383.466Z" fill="black"/>
<path d="M275.3 383.466H267.005V391.761H275.3V383.466Z" fill="black"/>
<path d="M101.105 391.761H92.8101V400.056H101.105V391.761Z" fill="black"/>
<path d="M109.4 391.761H101.105V400.056H109.4V391.761Z" fill="black"/>
<path d="M134.285 391.761H125.99V400.056H134.285V391.761Z" fill="black"/>
<path d="M142.58 391.761H134.285V400.056H142.58V391.761Z" fill="black"/>
<path d="M150.875 391.761H142.58V400.056H150.875V391.761Z" fill="black"/>
<path d="M167.465 391.761H159.17V400.056H167.465V391.761Z" fill="black"/>
<path d="M175.76 391.761H167.465V400.056H175.76V391.761Z" fill="black"/>
<path d="M192.35 391.761H184.055V400.056H192.35V391.761Z" fill="black"/>
<path d="M217.235 391.761H208.94V400.056H217.235V391.761Z" fill="black"/>
<path d="M225.53 391.761H217.235V400.056H225.53V391.761Z" fill="black"/>
<path d="M233.825 391.761H225.53V400.056H233.825V391.761Z" fill="black"/>
<path d="M242.12 391.761H233.825V400.056H242.12V391.761Z" fill="black"/>
<path d="M258.71 391.761H250.415V400.056H258.71V391.761Z" fill="black"/>
<path d="M275.3 391.761H267.005V400.056H275.3V391.761Z" fill="black"/>
<path d="M283.595 391.761H275.3V400.056H283.595V391.761Z" fill="black"/>
<path d="M101.105 400.056H92.8101V408.351H101.105V400.056Z" fill="black"/>
<path d="M109.4 400.056H101.105V408.351H109.4V400.056Z" fill="black"/>
<path d="M142.58 400.056H134.285V408.351H142.58V400.056Z" fill="black"/>
<path d="M159.17 400.056H150.875V408.351H159.17V400.056Z" fill="black"/>
<path d="M167.465 400.056H159.17V408.351H167.465V400.056Z" fill="black"/>
<path d="M217.235 400.056H208.94V408.351H217.235V400.056Z" fill="black"/>
<path d="M225.53 400.056H217.235V408.351H225.53V400.056Z" fill="black"/>
<path d="M233.825 400.056H225.53V408.351H233.825V400.056Z" fill="black"/>
<path d="M258.71 400.056H250.415V408.351H258.71V400.056Z" fill="black"/>
<path d="M283.595 400.056H275.3V408.351H283.595V400.056Z" fill="black"/>
<path d="M84.515 408.351H76.22V416.646H84.515V408.351Z" fill="black"/>
<path d="M101.105 408.351H92.8101V416.646H101.105V408.351Z" fill="black"/>
<path d="M109.4 408.351H101.105V416.646H109.4V408.351Z" fill="black"/>
<path d="M117.695 408.351H109.4V416.646H117.695V408.351Z" fill="black"/>
<path d="M125.99 408.351H117.695V416.646H125.99V408.351Z" fill="black"/>
<path d="M134.285 408.351H125.99V416.646H134.285V408.351Z" fill="black"/>
<path d="M142.58 408.351H134.285V416.646H142.58V408.351Z" fill="black"/>
<path d="M184.055 408.351H175.76V416.646H184.055V408.351Z" fill="black"/>
<path d="M192.35 408.351H184.055V416.646H192.35V408.351Z" fill="black"/>
<path d="M217.235 408.351H208.94V416.646H217.235V408.351Z" fill="black"/>
<path d="M225.53 408.351H217.235V416.646H225.53V408.351Z" fill="black"/>
<path d="M233.825 408.351H225.53V416.646H233.825V408.351Z" fill="black"/>
<path d="M242.12 408.351H233.825V416.646H242.12V408.351Z" fill="black"/>
<path d="M267.005 408.351H258.71V416.646H267.005V408.351Z" fill="black"/>
<path d="M275.3 408.351H267.005V416.646H275.3V408.351Z" fill="black"/>
<path d="M283.595 408.351H275.3V416.646H283.595V408.351Z" fill="black"/>
<path d="M92.8099 416.646H84.5149V424.941H92.8099V416.646Z" fill="black"/>
<path d="M109.4 416.646H101.105V424.941H109.4V416.646Z" fill="black"/>
<path d="M150.875 416.646H142.58V424.941H150.875V416.646Z" fill="black"/>
<path d="M159.17 416.646H150.875V424.941H159.17V416.646Z" fill="black"/>
<path d="M175.76 416.646H167.465V424.941H175.76V416.646Z" fill="black"/>
<path d="M184.055 416.646H175.76V424.941H184.055V416.646Z" fill="black"/>
<path d="M192.35 416.646H184.055V424.941H192.35V416.646Z" fill="black"/>
<path d="M208.94 416.646H200.645V424.941H208.94V416.646Z" fill="black"/>
<path d="M233.825 416.646H225.53V424.941H233.825V416.646Z" fill="black"/>
<path d="M250.415 416.646H242.12V424.941H250.415V416.646Z" fill="black"/>
<path d="M275.3 416.646H267.005V424.941H275.3V416.646Z" fill="black"/>
<path d="M84.515 424.941H76.22V433.236H84.515V424.941Z" fill="black"/>
<path d="M109.4 424.941H101.105V433.236H109.4V424.941Z" fill="black"/>
<path d="M125.99 424.941H117.695V433.236H125.99V424.941Z" fill="black"/>
<path d="M134.285 424.941H125.99V433.236H134.285V424.941Z" fill="black"/>
<path d="M159.17 424.941H150.875V433.236H159.17V424.941Z" fill="black"/>
<path d="M167.465 424.941H159.17V433.236H167.465V424.941Z" fill="black"/>
<path d="M184.055 424.941H175.76V433.236H184.055V424.941Z" fill="black"/>
<path d="M192.35 424.941H184.055V433.236H192.35V424.941Z" fill="black"/>
<path d="M217.235 424.941H208.94V433.236H217.235V424.941Z" fill="black"/>
<path d="M225.53 424.941H217.235V433.236H225.53V424.941Z" fill="black"/>
<path d="M233.825 424.941H225.53V433.236H233.825V424.941Z" fill="black"/>
<path d="M242.12 424.941H233.825V433.236H242.12V424.941Z" fill="black"/>
<path d="M250.415 424.941H242.12V433.236H250.415V424.941Z" fill="black"/>
<path d="M258.71 424.941H250.415V433.236H258.71V424.941Z" fill="black"/>
<path d="M150.875 433.236H142.58V441.531H150.875V433.236Z" fill="black"/>
<path d="M175.76 433.236H167.465V441.531H175.76V433.236Z" fill="black"/>
<path d="M184.055 433.236H175.76V441.531H184.055V433.236Z" fill="black"/>
<path d="M217.235 433.236H208.94V441.531H217.235V433.236Z" fill="black"/>
<path d="M250.415 433.236H242.12V441.531H250.415V433.236Z" fill="black"/>
<path d="M258.71 433.236H250.415V441.531H258.71V433.236Z" fill="black"/>
<path d="M275.3 433.236H267.005V441.531H275.3V433.236Z" fill="black"/>
<path d="M283.595 433.236H275.3V441.531H283.595V433.236Z" fill="black"/>
<path d="M84.515 441.531H76.22V449.826H84.515V441.531Z" fill="black"/>
<path d="M92.8099 441.531H84.5149V449.826H92.8099V441.531Z" fill="black"/>
<path d="M101.105 441.531H92.8101V449.826H101.105V441.531Z" fill="black"/>
<path d="M109.4 441.531H101.105V449.826H109.4V441.531Z" fill="black"/>
<path d="M117.695 441.531H109.4V449.826H117.695V441.531Z" fill="black"/>
<path d="M125.99 441.531H117.695V449.826H125.99V441.531Z" fill="black"/>
<path d="M134.285 441.531H125.99V449.826H134.285V441.531Z" fill="black"/>
<path d="M150.875 441.531H142.58V449.826H150.875V441.531Z" fill="black"/>
<path d="M184.055 441.531H175.76V449.826H184.055V441.531Z" fill="black"/>
<path d="M192.35 441.531H184.055V449.826H192.35V441.531Z" fill="black"/>
<path d="M200.645 441.531H192.35V449.826H200.645V441.531Z" fill="black"/>
<path d="M208.94 441.531H200.645V449.826H208.94V441.531Z" fill="black"/>
<path d="M217.235 441.531H208.94V449.826H217.235V441.531Z" fill="black"/>
<path d="M233.825 441.531H225.53V449.826H233.825V441.531Z" fill="black"/>
<path d="M250.415 441.531H242.12V449.826H250.415V441.531Z" fill="black"/>
<path d="M258.71 441.531H250.415V449.826H258.71V441.531Z" fill="black"/>
<path d="M275.3 441.531H267.005V449.826H275.3V441.531Z" fill="black"/>
<path d="M283.595 441.531H275.3V449.826H283.595V441.531Z" fill="black"/>
<path d="M84.515 449.826H76.22V458.121H84.515V449.826Z" fill="black"/>
<path d="M134.285 449.826H125.99V458.121H134.285V449.826Z" fill="black"/>
<path d="M150.875 449.826H142.58V458.121H150.875V449.826Z" fill="black"/>
<path d="M167.465 449.826H159.17V458.121H167.465V449.826Z" fill="black"/>
<path d="M175.76 449.826H167.465V458.121H175.76V449.826Z" fill="black"/>
<path d="M184.055 449.826H175.76V458.121H184.055V449.826Z" fill="black"/>
<path d="M192.35 449.826H184.055V458.121H192.35V449.826Z" fill="black"/>
<path d="M200.645 449.826H192.35V458.121H200.645V449.826Z" fill="black"/>
<path d="M217.235 449.826H208.94V458.121H217.235V449.826Z" fill="black"/>
<path d="M250.415 449.826H242.12V458.121H250.415V449.826Z" fill="black"/>
<path d="M258.71 449.826H250.415V458.121H258.71V449.826Z" fill="black"/>
<path d="M275.3 449.826H267.005V458.121H275.3V449.826Z" fill="black"/>
<path d="M84.515 458.121H76.22V466.416H84.515V458.121Z" fill="black"/>
<path d="M101.105 458.121H92.8101V466.416H101.105V458.121Z" fill="black"/>
<path d="M109.4 458.121H101.105V466.416H109.4V458.121Z" fill="black"/>
<path d="M117.695 458.121H109.4V466.416H117.695V458.121Z" fill="black"/>
<path d="M134.285 458.121H125.99V466.416H134.285V458.121Z" fill="black"/>
<path d="M150.875 458.121H142.58V466.416H150.875V458.121Z" fill="black"/>
<path d="M159.17 458.121H150.875V466.416H159.17V458.121Z" fill="black"/>
<path d="M167.465 458.121H159.17V466.416H167.465V458.121Z" fill="black"/>
<path d="M192.35 458.121H184.055V466.416H192.35V458.121Z" fill="black"/>
<path d="M200.645 458.121H192.35V466.416H200.645V458.121Z" fill="black"/>
<path d="M217.235 458.121H208.94V466.416H217.235V458.121Z" fill="black"/>
<path d="M225.53 458.121H217.235V466.416H225.53V458.121Z" fill="black"/>
<path d="M233.825 458.121H225.53V466.416H233.825V458.121Z" fill="black"/>
<path d="M242.12 458.121H233.825V466.416H242.12V458.121Z" fill="black"/>
<path d="M250.415 458.121H242.12V466.416H250.415V458.121Z" fill="black"/>
<path d="M258.71 458.121H250.415V466.416H258.71V458.121Z" fill="black"/>
<path d="M275.3 458.121H267.005V466.416H275.3V458.121Z" fill="black"/>
<path d="M84.515 466.416H76.22V474.711H84.515V466.416Z" fill="black"/>
<path d="M101.105 466.416H92.8101V474.711H101.105V466.416Z" fill="black"/>
<path d="M109.4 466.416H101.105V474.711H109.4V466.416Z" fill="black"/>
<path d="M117.695 466.416H109.4V474.711H117.695V466.416Z" fill="black"/>
<path d="M134.285 466.416H125.99V474.711H134.285V466.416Z" fill="black"/>
<path d="M167.465 466.416H159.17V474.711H167.465V466.416Z" fill="black"/>
<path d="M208.94 466.416H200.645V474.711H208.94V466.416Z" fill="black"/>
<path d="M217.235 466.416H208.94V474.711H217.235V466.416Z" fill="black"/>
<path d="M242.12 466.416H233.825V474.711H242.12V466.416Z" fill="black"/>
<path d="M250.415 466.416H242.12V474.711H250.415V466.416Z" fill="black"/>
<path d="M258.71 466.416H250.415V474.711H258.71V466.416Z" fill="black"/>
<path d="M267.005 466.416H258.71V474.711H267.005V466.416Z" fill="black"/>
<path d="M84.515 474.711H76.22V483.006H84.515V474.711Z" fill="black"/>
<path d="M101.105 474.711H92.8101V483.006H101.105V474.711Z" fill="black"/>
<path d="M109.4 474.711H101.105V483.006H109.4V474.711Z" fill="black"/>
<path d="M117.695 474.711H109.4V483.006H117.695V474.711Z" fill="black"/>
<path d="M134.285 474.711H125.99V483.006H134.285V474.711Z" fill="black"/>
<path d="M150.875 474.711H142.58V483.006H150.875V474.711Z" fill="black"/>
<path d="M192.35 474.711H184.055V483.006H192.35V474.711Z" fill="black"/>
<path d="M208.94 474.711H200.645V483.006H208.94V474.711Z" fill="black"/>
<path d="M250.415 474.711H242.12V483.006H250.415V474.711Z" fill="black"/>
<path d="M283.595 474.711H275.3V483.006H283.595V474.711Z" fill="black"/>
<path d="M84.515 483.006H76.22V491.301H84.515V483.006Z" fill="black"/>
<path d="M134.285 483.006H125.99V491.301H134.285V483.006Z" fill="black"/>
<path d="M150.875 483.006H142.58V491.301H150.875V483.006Z" fill="black"/>
<path d="M159.17 483.006H150.875V491.301H159.17V483.006Z" fill="black"/>
<path d="M175.76 483.006H167.465V491.301H175.76V483.006Z" fill="black"/>
<path d="M192.35 483.006H184.055V491.301H192.35V483.006Z" fill="black"/>
<path d="M200.645 483.006H192.35V491.301H200.645V483.006Z" fill="black"/>
<path d="M208.94 483.006H200.645V491.301H208.94V483.006Z" fill="black"/>
<path d="M217.235 483.006H208.94V491.301H217.235V483.006Z" fill="black"/>
<path d="M233.825 483.006H225.53V491.301H233.825V483.006Z" fill="black"/>
<path d="M250.415 483.006H242.12V491.301H250.415V483.006Z" fill="black"/>
<path d="M258.71 483.006H250.415V491.301H258.71V483.006Z" fill="black"/>
<path d="M275.3 483.006H267.005V491.301H275.3V483.006Z" fill="black"/>
<path d="M84.515 491.301H76.22V499.596H84.515V491.301Z" fill="black"/>
<path d="M92.8099 491.301H84.5149V499.596H92.8099V491.301Z" fill="black"/>
<path d="M101.105 491.301H92.8101V499.596H101.105V491.301Z" fill="black"/>
<path d="M109.4 491.301H101.105V499.596H109.4V491.301Z" fill="black"/>
<path d="M117.695 491.301H109.4V499.596H117.695V491.301Z" fill="black"/>
<path d="M125.99 491.301H117.695V499.596H125.99V491.301Z" fill="black"/>
<path d="M134.285 491.301H125.99V499.596H134.285V491.301Z" fill="black"/>
<path d="M150.875 491.301H142.58V499.596H150.875V491.301Z" fill="black"/>
<path d="M217.235 491.301H208.94V499.596H217.235V491.301Z" fill="black"/>
<path d="M225.53 491.301H217.235V499.596H225.53V491.301Z" fill="black"/>
<path d="M242.12 491.301H233.825V499.596H242.12V491.301Z" fill="black"/>
<path d="M275.3 491.301H267.005V499.596H275.3V491.301Z" fill="black"/>
<path d="M283.595 491.301H275.3V499.596H283.595V491.301Z" fill="black"/>
</g>
<rect width="57" height="25" transform="translate(254 47.0012)" fill="#2979FF"/>
<path d="M274.195 60.7981C274.081 62.0116 273.633 62.9596 272.852 63.6418C272.07 64.3189 271.031 64.6575 269.734 64.6575C268.828 64.6575 268.029 64.4439 267.336 64.0168C266.648 63.5846 266.117 62.9726 265.742 62.1809C265.367 61.3892 265.172 60.47 265.156 59.4231V58.3606C265.156 57.2877 265.346 56.3424 265.727 55.5247C266.107 54.7069 266.651 54.0767 267.359 53.634C268.073 53.1913 268.896 52.97 269.828 52.97C271.083 52.97 272.094 53.3111 272.859 53.9934C273.625 54.6757 274.07 55.6392 274.195 56.884H272.227C272.133 56.0663 271.893 55.4778 271.508 55.1184C271.128 54.7538 270.568 54.5715 269.828 54.5715C268.969 54.5715 268.307 54.8866 267.844 55.5168C267.385 56.1418 267.151 57.0611 267.141 58.2747V59.2825C267.141 60.5116 267.359 61.4491 267.797 62.095C268.24 62.7408 268.885 63.0637 269.734 63.0637C270.51 63.0637 271.094 62.8892 271.484 62.5403C271.875 62.1913 272.122 61.6106 272.227 60.7981H274.195ZM275.43 60.1965C275.43 59.3684 275.594 58.6236 275.922 57.9622C276.25 57.2955 276.711 56.7851 277.305 56.4309C277.898 56.0715 278.581 55.8918 279.352 55.8918C280.492 55.8918 281.417 56.259 282.125 56.9934C282.839 57.7278 283.224 58.7017 283.281 59.9153L283.289 60.3606C283.289 61.1939 283.128 61.9387 282.805 62.595C282.487 63.2512 282.029 63.759 281.43 64.1184C280.836 64.4778 280.148 64.6575 279.367 64.6575C278.174 64.6575 277.219 64.2616 276.5 63.47C275.786 62.6731 275.43 61.6132 275.43 60.2903V60.1965ZM277.328 60.3606C277.328 61.2304 277.508 61.9127 277.867 62.4075C278.227 62.8971 278.727 63.1418 279.367 63.1418C280.008 63.1418 280.505 62.8918 280.859 62.3918C281.219 61.8918 281.398 61.1601 281.398 60.1965C281.398 59.3424 281.214 58.6653 280.844 58.1653C280.479 57.6653 279.982 57.4153 279.352 57.4153C278.732 57.4153 278.24 57.6627 277.875 58.1575C277.51 58.6471 277.328 59.3814 277.328 60.3606ZM292.297 60.3606C292.297 61.6679 292 62.7122 291.406 63.4934C290.812 64.2694 290.016 64.6575 289.016 64.6575C288.089 64.6575 287.346 64.3528 286.789 63.7434V67.7512H284.891V56.0481H286.641L286.719 56.9075C287.276 56.2304 288.034 55.8918 288.992 55.8918C290.023 55.8918 290.831 56.2773 291.414 57.0481C292.003 57.8137 292.297 58.8788 292.297 60.2434V60.3606ZM290.406 60.1965C290.406 59.3528 290.237 58.6835 289.898 58.1887C289.565 57.6939 289.086 57.4465 288.461 57.4465C287.685 57.4465 287.128 57.7668 286.789 58.4075V62.1575C287.133 62.8137 287.695 63.1418 288.477 63.1418C289.081 63.1418 289.552 62.8997 289.891 62.4153C290.234 61.9257 290.406 61.1861 290.406 60.1965ZM296.773 61.7825L298.492 56.0481H300.516L297.156 65.7825C296.641 67.2043 295.766 67.9153 294.531 67.9153C294.255 67.9153 293.951 67.8684 293.617 67.7747V66.3059L293.977 66.3293C294.456 66.3293 294.815 66.2408 295.055 66.0637C295.299 65.8918 295.492 65.6002 295.633 65.1887L295.906 64.4622L292.938 56.0481H294.984L296.773 61.7825Z" fill="white"/>
<path d="M115.038 127.02C115.038 137.507 106.506 146.039 96.0197 146.039C85.5324 146.039 77 137.507 77 127.02C77 116.534 85.5321 108.001 96.0197 108.001C96.8295 108.001 97.6272 108.052 98.4101 108.152C98.9727 108.26 99.7293 108.415 100.101 108.576C102.06 109.418 103.054 111.05 103.399 111.8C104.038 113.059 104.05 113.812 104.068 114.43C104.071 114.531 104.07 114.884 104.07 114.967L104.042 130.36C104.04 130.825 103.753 131.24 103.318 131.404C102.884 131.566 102.394 131.444 102.087 131.097L93.9528 121.867L93.9709 140.487C93.9709 141.103 93.4723 141.604 92.856 141.604H92.8548C92.2385 141.604 91.7386 141.106 91.7386 140.49L91.7179 118.91C91.7179 118.445 92.0052 118.03 92.4382 117.865C92.8742 117.701 93.364 117.823 93.6704 118.172L101.814 127.41L101.838 114.963C101.838 114.879 101.839 114.604 101.84 114.543C101.842 114.283 101.731 113.35 101.195 112.506C100.514 111.433 99.726 110.799 98.4478 110.409C97.6173 110.175 96.8449 110.238 96.0204 110.233C87.1877 110.18 79.2333 117.764 79.2333 127.019C79.2333 136.276 86.7637 143.807 96.0204 143.807C105.276 143.807 112.806 136.276 112.806 127.019C112.806 125.064 112.469 123.186 111.849 121.44C111.857 121.435 111.753 121.111 111.753 120.934C111.753 120.316 112.253 119.816 112.87 119.816C113.251 119.816 113.588 119.995 113.787 120.286C113.809 120.316 113.927 120.611 113.966 120.722C114.66 122.694 115.038 124.814 115.038 127.02Z" fill="#041427"/>
<path d="M109.185 117.885C110.514 117.885 111.591 116.808 111.591 115.479C111.591 114.15 110.514 113.073 109.185 113.073C107.856 113.073 106.779 114.15 106.779 115.479C106.779 116.808 107.856 117.885 109.185 117.885Z" fill="#041427"/>
<path d="M124.237 135.758C120.558 135.758 117.565 132.115 117.565 127.638C117.565 123.16 120.558 119.518 124.237 119.518C127.916 119.518 130.909 123.16 130.909 127.638C130.909 132.115 127.916 135.758 124.237 135.758ZM124.237 121.369C121.579 121.369 119.417 124.181 119.417 127.638C119.417 131.095 121.579 133.907 124.237 133.907C126.895 133.907 129.058 131.095 129.058 127.638C129.058 124.181 126.896 121.369 124.237 121.369Z" fill="#041427"/>
<path d="M139.246 135.758C139.237 135.758 139.227 135.758 139.218 135.758C138.863 135.747 138.545 135.533 138.4 135.209L131.92 120.649C131.712 120.182 131.922 119.635 132.389 119.427C132.858 119.22 133.404 119.43 133.612 119.896L139.312 132.703L145.832 120.2C146.068 119.747 146.627 119.57 147.081 119.807C147.534 120.044 147.71 120.603 147.474 121.056L140.067 135.26C139.908 135.567 139.59 135.758 139.246 135.758Z" fill="#041427"/>
<path d="M171.529 118.443C167.851 118.443 164.857 122.085 164.857 126.563C164.857 131.04 167.851 134.682 171.529 134.682C173.989 134.682 176.143 133.056 177.296 130.636C177.352 130.522 177.405 130.405 177.454 130.285C177.466 130.229 177.473 130.17 177.473 130.112C177.473 129.852 177.358 129.621 177.173 129.457C177.007 129.306 176.781 129.214 176.534 129.214C176.318 129.214 176.121 129.284 175.964 129.402C175.92 129.467 175.93 129.504 175.886 129.544C175.099 131.614 173.421 132.83 171.529 132.83C169.128 132.83 167.135 130.54 166.77 127.553H177.275C177.821 127.553 178.266 127.112 178.266 126.562V126.201C178.105 121.897 175.103 118.443 171.529 118.443ZM166.77 125.572C167.135 122.585 169.128 120.295 171.529 120.295C173.927 120.295 175.923 122.585 176.288 125.572H166.77Z" fill="#041427"/>
<path d="M159.381 128.22C159.393 127.738 159.378 127.239 159.436 126.767C159.483 126.782 159.764 126.825 160.069 126.816C160.439 126.807 160.64 126.634 161.27 126.563C161.251 127.162 161.291 127.686 161.279 128.233C161.251 129.501 161.782 130.738 162.658 131.655C163.263 132.291 164.016 132.732 164.84 132.954C165.321 133.016 165.692 133.429 165.692 133.929C165.692 134.253 165.537 134.54 165.294 134.719C165.13 134.843 164.926 134.917 164.704 134.917C164.636 134.917 164.569 134.911 164.507 134.895C164.47 134.889 164.436 134.88 164.402 134.871C163.204 134.562 162.112 133.93 161.239 133.013C160.001 131.717 159.341 130.013 159.381 128.22Z" fill="#041427"/>
<path d="M154.558 135.672C150.879 135.672 147.886 132.029 147.886 127.552C147.886 123.074 150.879 119.432 154.558 119.432C155.726 119.432 160.203 119.347 160.248 119.347L160.821 119.336L161.086 119.843C161.297 120.248 161.32 120.914 161.259 124.933C161.244 125.873 161.23 126.802 161.23 127.552C161.23 132.029 158.237 135.672 154.558 135.672ZM159.428 121.214C158.055 121.238 155.436 121.284 154.558 121.284C151.9 121.284 149.738 124.096 149.738 127.552C149.738 131.009 151.9 133.821 154.558 133.821C157.216 133.821 159.378 131.009 159.378 127.552C159.378 126.794 159.393 125.855 159.407 124.905C159.426 123.677 159.45 122.114 159.428 121.214Z" fill="#041427"/>
<path d="M206.222 134.564L203.787 127.945C203.778 127.914 203.766 127.886 203.756 127.858L198.236 112.845C198.1 112.472 197.739 112.216 197.343 112.237C196.948 112.246 196.603 112.509 196.482 112.885L189.656 134.654C189.502 135.141 189.774 135.663 190.261 135.814C190.354 135.845 190.447 135.857 190.539 135.857C190.934 135.857 191.298 135.604 191.421 135.209L193.344 129.078C193.455 129.121 193.575 129.145 193.702 129.145H202.253L204.481 135.203C204.66 135.685 205.191 135.932 205.672 135.753C206.151 135.576 206.398 135.046 206.222 134.564ZM193.906 127.294L197.436 116.036L201.575 127.294H193.906Z" fill="#041427"/>
<path d="M211.651 135.807C211.641 135.807 211.631 135.807 211.622 135.807C211.267 135.796 210.949 135.582 210.805 135.258L204.324 120.698C204.117 120.231 204.327 119.684 204.794 119.476C205.262 119.269 205.808 119.479 206.016 119.945L211.717 132.752L218.236 120.249C218.472 119.796 219.032 119.619 219.485 119.856C219.939 120.092 220.114 120.652 219.878 121.105L212.471 135.309C212.312 135.616 211.995 135.807 211.651 135.807Z" fill="#041427"/>
<path d="M226.807 119.434C223.128 119.434 220.135 123.075 220.135 127.553C220.135 132.03 223.128 135.672 226.807 135.672C229.266 135.672 231.42 134.046 232.574 131.626C232.63 131.512 232.682 131.395 232.732 131.275C232.744 131.219 232.75 131.16 232.75 131.102C232.75 130.842 232.636 130.611 232.451 130.447C232.284 130.296 232.059 130.204 231.812 130.204C231.596 130.204 231.399 130.275 231.241 130.392C231.198 130.457 231.207 130.494 231.164 130.534C230.377 132.604 228.698 133.82 226.807 133.82C224.406 133.82 222.412 131.53 222.048 128.543H232.553C233.099 128.543 233.543 128.102 233.543 127.552V127.191C233.383 122.887 230.38 119.434 226.807 119.434ZM222.048 126.562C222.412 123.575 224.406 121.285 226.807 121.285C229.204 121.285 231.201 123.575 231.565 126.562H222.048Z" fill="#041427"/>
<path d="M268.674 128.148C268.674 128.142 268.693 128.009 268.683 128.006V120.514C268.683 120.02 268.285 119.621 267.791 119.621C267.297 119.621 266.899 120.02 266.899 120.514C266.899 120.514 266.902 128.237 266.908 128.281C266.748 131.546 264.289 134.129 261.372 134.129C258.431 134.129 256.179 131.469 256.061 128.167C256.064 128.145 256.064 128.127 256.064 128.105V120.359C256.064 119.847 255.651 119.434 255.139 119.434C254.626 119.434 254.213 119.847 254.213 120.359V127.923C254.207 127.932 254.204 127.942 254.204 127.951C254.204 132.459 257.271 136.092 261.372 136.092C265.474 136.092 268.674 132.657 268.674 128.148Z" fill="#041427"/>
<path d="M252.212 127.094C252.212 127.101 252.231 127.233 252.221 127.237V134.729C252.221 135.223 251.823 135.621 251.329 135.621C250.836 135.621 250.438 135.223 250.438 134.729C250.438 134.729 250.441 127.005 250.447 126.962C250.286 123.697 247.827 121.114 244.911 121.114C241.97 121.114 239.717 123.774 239.6 127.076C239.603 127.098 239.603 127.116 239.603 127.138V134.883C239.603 135.396 239.189 135.809 238.677 135.809C238.165 135.809 237.751 135.396 237.751 134.883V127.32C237.745 127.31 237.742 127.301 237.742 127.292C237.742 122.783 240.809 119.151 244.911 119.151C249.012 119.151 252.212 122.586 252.212 127.094Z" fill="#041427"/>
<path d="M239.64 126.33C239.628 126.812 239.643 127.311 239.584 127.783C239.538 127.768 239.257 127.725 238.951 127.734C238.581 127.743 238.381 127.916 237.751 127.987C237.77 127.388 237.729 126.864 237.742 126.318C237.77 125.05 237.239 123.812 236.362 122.895C235.757 122.26 235.005 121.818 234.181 121.596C233.699 121.534 233.329 121.121 233.329 120.621C233.329 120.297 233.483 120.01 233.727 119.831C233.89 119.707 234.094 119.633 234.316 119.633C234.384 119.633 234.452 119.64 234.514 119.655C234.551 119.661 234.585 119.67 234.619 119.679C235.816 119.988 236.909 120.621 237.782 121.537C239.02 122.834 239.68 124.537 239.64 126.33Z" fill="#041427"/>
<path d="M277.262 118.677C273.584 118.677 270.591 122.319 270.591 126.797C270.591 131.274 273.584 134.916 277.262 134.916C279.722 134.916 281.876 133.289 283.03 130.87C283.086 130.756 283.138 130.639 283.187 130.519C283.2 130.463 283.206 130.404 283.206 130.345C283.206 130.086 283.092 129.855 282.907 129.691C282.74 129.54 282.514 129.447 282.268 129.447C282.052 129.447 281.854 129.518 281.697 129.636C281.653 129.701 281.663 129.738 281.62 129.778C280.833 131.848 279.154 133.064 277.262 133.064C274.862 133.064 272.868 130.774 272.504 127.787H283.008C283.555 127.787 283.999 127.346 283.999 126.796V126.435C283.839 122.13 280.836 118.677 277.262 118.677ZM272.504 125.806C272.868 122.818 274.862 120.529 277.262 120.529C279.66 120.529 281.657 122.818 282.021 125.806H272.504Z" fill="#041427"/>
</g>
</g>
<defs>
<filter id="filter0_ddd_1_1363" x="0" y="0" width="363" height="721.81" filterUnits="userSpaceOnUse" color-interpolation-filters="sRGB">
<feFlood flood-opacity="0" result="BackgroundImageFix"/>
<feColorMatrix in="SourceAlpha" type="matrix" values="0 0 0 0 0 0 0 0 0 0 0 0 0 0 0 0 0 0 127 0" result="hardAlpha"/>
<feOffset dy="4"/>
<feGaussianBlur stdDeviation="4"/>
<feColorMatrix type="matrix" values="0 0 0 0 0 0 0 0 0 0 0 0 0 0 0 0 0 0 0.12 0"/>
<feBlend mode="normal" in2="BackgroundImageFix" result="effect1_dropShadow_1_1363"/>
<feColorMatrix in="SourceAlpha" type="matrix" values="0 0 0 0 0 0 0 0 0 0 0 0 0 0 0 0 0 0 127 0" result="hardAlpha"/>
<feOffset dy="6"/>
<feGaussianBlur stdDeviation="6"/>
<feColorMatrix type="matrix" values="0 0 0 0 0 0 0 0 0 0 0 0 0 0 0 0 0 0 0.12 0"/>
<feBlend mode="normal" in2="effect1_dropShadow_1_1363" result="effect2_dropShadow_1_1363"/>
<feColorMatrix in="SourceAlpha" type="matrix" values="0 0 0 0 0 0 0 0 0 0 0 0 0 0 0 0 0 0 127 0" result="hardAlpha"/>
<feOffset dy="1"/>
<feGaussianBlur stdDeviation="8"/>
<feColorMatrix type="matrix" values="0 0 0 0 0 0 0 0 0 0 0 0 0 0 0 0 0 0 0.12 0"/>
<feBlend mode="normal" in2="effect2_dropShadow_1_1363" result="effect3_dropShadow_1_1363"/>
<feBlend mode="normal" in="SourceGraphic" in2="effect3_dropShadow_1_1363" result="shape"/>
</filter>
<filter id="filter1_ii_1_1363" x="14" y="5" width="343" height="700.81" filterUnits="userSpaceOnUse" color-interpolation-filters="sRGB">
<feFlood flood-opacity="0" result="BackgroundImageFix"/>
<feBlend mode="normal" in="SourceGraphic" in2="BackgroundImageFix" result="shape"/>
<feColorMatrix in="SourceAlpha" type="matrix" values="0 0 0 0 0 0 0 0 0 0 0 0 0 0 0 0 0 0 127 0" result="hardAlpha"/>
<feOffset dx="10" dy="2"/>
<feGaussianBlur stdDeviation="10"/>
<feComposite in2="hardAlpha" operator="arithmetic" k2="-1" k3="1"/>
<feColorMatrix type="matrix" values="0 0 0 0 1 0 0 0 0 1 0 0 0 0 1 0 0 0 1 0"/>
<feBlend mode="normal" in2="shape" result="effect1_innerShadow_1_1363"/>
<feColorMatrix in="SourceAlpha" type="matrix" values="0 0 0 0 0 0 0 0 0 0 0 0 0 0 0 0 0 0 127 0" result="hardAlpha"/>
<feOffset dx="-2" dy="-10"/>
<feGaussianBlur stdDeviation="10"/>
<feComposite in2="hardAlpha" operator="arithmetic" k2="-1" k3="1"/>
<feColorMatrix type="matrix" values="0 0 0 0 0.6 0 0 0 0 0.656078 0 0 0 0 0.854902 0 0 0 0.54 0"/>
<feBlend mode="normal" in2="effect1_innerShadow_1_1363" result="effect2_innerShadow_1_1363"/>
</filter>
<clipPath id="clip0_1_1363">
<rect x="27.9639" y="28.9578" width="307.072" height="660.006" rx="29" fill="white"/>
</clipPath>
<clipPath id="clip1_1_1363">
<rect width="237" height="237" fill="white" transform="translate(62 278.001)"/>
</clipPath>
</defs>
</svg>
